<svg width="130" height="140" viewBox="0 0 130 140" fill="none" xmlns="http://www.w3.org/2000/svg">
<path d="M51.1934 49.2894C51.8117 49.3221 54.763 48.8051 57.77 48.1361C60.7762 47.4674 64.6144 46.7219 66.3227 46.4747C69.0477 46.0807 69.5085 46.1438 70.1402 46.9952C70.5271 47.5174 71.3009 48.3765 71.8159 48.8576C73.2686 50.2141 79.9971 58.5501 81.5464 60.9117C82.8824 62.9484 84.1432 65.4704 91.7689 81.359C96.7116 91.6582 98.9825 98.8303 99.2693 105.053C99.5327 110.76 99.045 113.847 97.7228 114.844C96.8733 115.484 96.0892 115.492 92.5937 114.901C87.351 114.014 85.3246 114.558 81.449 117.89C78.3388 120.564 76.0692 121.418 73.602 120.846C72.6495 120.625 68.6157 118.71 64.6612 116.602C55.8839 111.921 54.3319 111.584 49.1396 113.22C45.0849 114.497 43.2529 115.685 37.9584 120.469C36.0271 122.215 34.2798 123.548 34.0677 123.437C33.3618 123.07 31.6514 117.81 30.9084 113.725C29.4309 105.596 29.8423 98.9567 32.2372 92.3037C33.5305 88.7095 34.4546 87.0332 40.5532 77.2173C46.3468 67.8919 48.8703 61.0839 49.5564 52.9298C49.7235 50.947 49.9094 49.2796 49.9665 49.2616C50.023 49.2438 50.5854 49.2564 51.1934 49.2894ZM60.6704 41.2987C66.2366 40.1484 67.4795 40.1542 67.8496 41.3288C68.0473 41.9564 67.9026 42.2074 67.3453 42.2087C66.1257 42.211 55.5041 44.2998 53.497 44.9322C52.0341 45.3931 51.6554 45.3588 51.4623 44.746C51.0757 43.5189 51.508 43.1397 53.8024 42.6923C54.9937 42.4595 58.0813 41.8331 60.6704 41.2987ZM58.0993 17.6776C63.2016 17.5354 72.4036 18.1219 75.5455 18.7888C78.7541 19.4701 78.5118 20.3257 72.9994 27.7727C71.2265 30.1684 69.3005 32.981 68.7189 34.0234L67.6617 35.9195L63.7974 36.6363C55.0696 38.2554 52.4958 38.6674 51.4597 38.612C50.2019 38.5445 47.0145 35.2555 44.8574 31.7993C41.9319 27.1145 41.411 22.472 43.637 20.9329C45.8366 19.4132 52.9053 17.822 58.0993 17.6776ZM42.1038 17.2321C38.5819 19.3612 37.5688 22.4689 38.768 27.468C39.5862 30.8807 42.1741 35.31 45.3212 38.6847L47.4085 40.9227L47.2825 43.0758C47.2141 44.2467 46.9122 45.4853 46.6209 45.7891C46.3273 46.095 46.0715 47.4566 46.0555 48.7935C46.0138 52.2998 44.971 58.4381 43.8119 62.0011C42.6192 65.6641 39.6533 71.1519 34.3108 79.5765C29.4599 87.2264 27.4682 91.9824 26.4919 98.2498C25.3 105.903 26.1415 113.94 28.9652 121.874C30.6415 126.585 31.7526 127.887 34.1614 127.964C35.4389 128.004 36.4286 127.282 42.9793 121.527C45.1747 119.598 46.811 118.531 48.7751 117.75C53.7792 115.761 53.9489 115.793 63.0893 120.444C67.6322 122.755 72.3389 124.82 73.5418 125.03C80.3185 126.209 84.7638 119.642 87.5175 118.774C89.6779 118.094 96.2044 120.446 98.9501 119.175C102.363 117.597 103.796 113.094 103.439 105.072C103.269 101.233 102.985 99.8842 101.027 93.607C99.051 87.2697 98.1181 85.0567 92.4774 73.3227C85.6277 59.074 83.9843 56.4302 77.1852 48.7281C75.4399 46.7502 73.894 44.8588 73.7511 44.5248C73.5368 44.0251 74.1193 43.7241 77.0519 42.8215C82.9589 41.0039 87.8313 41.6581 91.2075 44.7235C95.2066 48.3543 97.584 59.8053 103.52 64.6962C104.69 65.6601 105.275 65.843 106.225 65.5436C108.428 64.8495 108.365 63.8128 105.972 61.3498C99.3546 54.5375 99.3137 46.2188 93.4238 41.4516C89.7295 38.462 82.873 37.0834 78.4768 38.4471C77.6399 38.7071 76.6802 38.8381 76.3177 38.7426C74.9655 38.3849 88.3688 31.4803 92.2129 30.5542C95.5525 29.7501 96.8616 30.5335 100.433 35.4744C102.927 38.9256 103.306 39.7162 105.935 46.9763C110.866 60.5865 110.446 64.6736 113.255 63.7888C115.285 63.1489 115.199 62.5327 111.436 50.8498C107.552 38.7919 106.3 36.0751 102.318 31.0657C98.5501 26.3251 95.5844 25.2377 90.6589 26.7897C87.0941 27.913 77.8436 32.6441 72.8089 35.9198C71.7534 36.607 73.1235 34.4379 76.8254 29.5603C78.4495 27.4213 80.3173 24.675 80.971 23.4652C83.1644 19.4101 81.7049 16.1662 77.1395 14.9506C74.6494 14.2874 64.91 13.4766 59.7719 13.5052C53.1656 13.5421 45.5535 15.148 42.1038 17.2321Z" fill="black"/>
<path d="M62.6067 24.5425C63.8869 24.7397 64.8191 25.8768 65.5174 28.0929C65.8795 29.242 65.841 29.2653 63.4768 29.3461C62.0218 29.3961 61.7446 29.2455 61.4258 28.2335C60.9121 26.6033 60.6917 24.2344 61.0592 24.2988C61.2165 24.3268 61.9308 24.4394 62.6067 24.5425ZM60.575 19.1262C61.9699 21.0306 62.026 21.5743 60.7735 21.0574C60.0866 20.7737 58.6348 17.5776 59.1227 17.4239C59.2154 17.3947 59.8642 18.155 60.575 19.1262ZM42.26 21.9556C40.9382 24.4936 41.4031 24.6352 45.8673 23.0491C49.8767 21.6255 49.9553 21.617 53.567 22.2533L57.2163 22.8962L57.9199 25.6381C58.3011 27.1269 58.5771 28.4692 58.5228 28.5735C58.468 28.6787 56.974 28.5438 55.2352 28.2769C52.4905 27.8556 51.6309 27.9219 49.0441 28.7569C47.3759 29.2951 45.5939 30.0914 45.036 30.5479C44.1745 31.253 44.1215 31.5253 44.664 32.4572C45.4558 33.8166 45.4007 33.8036 46.5347 32.899C47.0888 32.4562 48.5503 31.7845 49.8465 31.376C51.7025 30.7912 52.8495 30.7696 55.5807 31.2697L58.9945 31.8945L59.3104 33.7717C59.4868 34.819 59.6608 36.1447 59.7048 36.7721C59.7771 37.8174 59.8877 37.8638 61.2673 37.4292C62.7369 36.9661 62.7476 36.939 62.3785 34.7573L62.0058 32.5545L64.021 32.2409C65.1168 32.0707 66.1694 31.9488 66.3266 31.9739C66.4839 31.9997 66.7634 32.985 66.9359 34.1258C67.1085 35.2666 67.3459 36.2872 67.4537 36.353C67.566 36.421 68.1453 35.7768 68.7816 34.8775C69.5444 33.7981 69.8051 32.9492 69.5868 32.2564C69.324 31.4225 69.4733 31.1671 70.3932 30.8772C71.0141 30.6816 72.1117 29.767 72.8317 28.845L74.142 27.1683L72.2681 27.6376C68.6471 28.5451 68.3992 28.4872 67.8019 26.5916C67.3409 25.1287 67.3824 24.8875 68.0858 24.9398C68.5421 24.9741 70.7605 24.5315 73.0585 23.9477C76.6327 23.0395 77.2899 22.7526 77.8059 21.8772C78.4352 20.8102 78.1439 19.042 77.3045 18.8278C77.032 18.7578 76.8707 18.909 76.9497 19.1597C77.1379 19.7571 69.8301 21.9422 67.5419 21.9733C65.8868 21.9954 65.6623 21.8431 64.4576 19.8788C62.8493 17.2573 62.5045 17.0727 59.357 17.1455C56.1638 17.2209 56.1238 17.2394 56.5134 18.4758C56.6978 19.0611 56.7687 19.544 56.6746 19.5736C56.5819 19.6029 55.0932 19.4403 53.3192 19.2067C50.8374 18.8792 49.3413 18.979 46.5673 19.6559C43.1537 20.4899 42.9734 20.5859 42.26 21.9556Z" fill="#1C1C1C"/>
<path d="M66.8409 99.0943L70.8742 100.811C70.9263 101.002 74.1197 112.616 74.0504 112.802C73.9789 112.994 70.9487 112.86 66.6915 112.475C64.3261 112.262 62.9747 111.911 62.8379 111.477C62.4822 110.348 62.1457 97.3006 62.4733 97.3392C62.6579 97.3601 64.6118 98.1457 66.8409 99.0943ZM48.7586 92.3191C51.4997 92.7053 57.1926 94.4794 58.6114 95.3908C59.1282 95.7229 59.2926 96.8308 59.3229 100.176C59.344 102.559 59.468 106.087 59.5964 107.972C59.725 109.862 59.7083 111.452 59.5585 111.499C59.4093 111.546 56.6499 111.311 53.4187 110.975C50.1884 110.639 46.2406 110.303 44.635 110.227C43.0491 110.152 41.7074 110.05 41.6932 110.005C41.6786 109.959 41.8019 108.362 41.97 106.425C42.4625 100.755 44.4763 92.3536 45.4137 92.0583C45.6663 91.9786 47.1718 92.096 48.7586 92.3191ZM66.0236 84.7598C69.0506 85.9527 69.7618 86.1423 71.0132 86.5199L70.8765 91.8483C70.8018 94.7667 70.7581 97.2329 70.7797 97.3014C70.8608 97.5588 68.8691 96.7799 65.5902 95.2705L62.2571 93.7368L62.659 88.7386C62.878 86.0037 63.1072 83.7257 63.1643 83.7077C63.2221 83.6895 64.5022 84.1607 66.0236 84.7598ZM56.5337 79.363L60.3049 81.8512L59.8186 86.9447C59.5516 89.7406 59.3095 92.0972 59.2813 92.1696C59.2541 92.2402 57.8218 91.7667 56.1524 91.1337C54.4528 90.4895 51.5106 89.7486 49.5872 89.4793L46.1022 88.9922L47.44 85.9047C48.9397 82.445 51.901 77.1463 52.4278 76.9803C52.6119 76.9223 54.4595 77.994 56.5337 79.363ZM68.8144 69.4045C70.4678 69.8387 72.1741 70.2842 72.6446 70.4034C73.4137 70.5984 73.3958 71.2237 72.4594 77.0338L71.424 83.449C67.8743 82.3625 67.3835 82.0614 63.5906 80.1725L64.5864 74.436C65.1346 71.2761 65.6378 68.6813 65.7076 68.6593C65.7769 68.6375 67.1609 68.9696 68.8144 69.4045ZM60.9864 66.5858L62.7315 67.5295L61.8306 72.9834C61.3342 75.9889 60.8327 78.4575 60.7142 78.4823C60.5956 78.5071 59.4343 77.8056 58.1395 76.9268C53.6984 73.914 53.8512 74.5491 56.461 69.9448C57.7311 67.7045 58.8965 65.7861 59.0179 65.7353C59.142 65.6836 60.0201 66.0629 60.9864 66.5858ZM60.0355 48.8009C60.0217 51.1062 59.0899 56.7737 58.2988 59.3668L57.6317 61.5538L55.1595 60.5629C53.7917 60.0151 51.6815 59.3452 50.4361 59.0639L48.1846 58.5552L47.8422 60.0193L47.499 61.483L49.3922 61.8039C51.5773 62.1746 55.8814 63.8759 56.0586 64.4384C56.1232 64.6433 55.087 66.6037 53.7834 68.7401L51.3903 72.6653L49.2408 71.8238C45.1516 70.2233 44.1298 70.2978 42.9062 72.287L42.0856 73.6211L43.847 73.5942C44.8074 73.5805 46.522 73.9488 47.6181 74.4057L49.6282 75.243L47.2257 79.7222C45.8939 82.205 44.3939 85.2793 43.8608 86.6188L42.8991 89.036L37.9085 90.4098C32.2838 91.9582 31.2681 92.5936 30.753 94.8856L30.3962 96.468L31.3226 95.908C33.0982 94.8336 38.7998 92.7461 40.223 92.6492L41.6627 92.5509L40.9015 95.3185C40.0797 98.3062 38.9758 105.024 38.7686 108.307C38.6667 109.902 38.4564 110.36 37.8406 110.323C36.2018 110.226 31.1529 111.082 30.555 111.559C30.2098 111.834 30.0694 112.496 30.2407 113.039C30.5246 113.94 30.8359 113.981 34.0028 113.531C38.9386 112.83 38.6889 112.647 38.7447 116.472C38.7695 118.211 38.9029 119.673 39.0435 119.755C39.1858 119.839 39.8287 119.404 40.5014 118.768C41.973 117.378 41.7725 116.118 41.6898 113.568C41.6765 113.15 42.5144 113.05 44.8566 113.19C46.59 113.295 49.2465 113.216 50.6848 113.017C54.1643 112.537 56.5337 112.979 60.2557 114.805C61.9402 115.631 63.3613 116.081 63.3697 115.791C63.3801 115.432 65.1452 115.372 68.7588 115.609C75.9107 116.078 75.377 115.404 77.0162 118.407C78.3861 120.917 78.4746 120.958 79.934 119.79C80.6676 119.202 80.7731 118.85 80.3917 118.263C77.8968 114.429 79.5934 117.031 86.0786 115.299C89.6542 114.344 92.8183 115.676 98.4091 113.957C99.0024 113.775 99.4232 113.162 99.5902 112.236C99.731 111.457 99.8164 110.694 99.7771 110.569C99.7368 110.441 98.7014 110.655 97.4475 111.05C94.5775 111.955 89.2085 112.617 82.7166 112.869L77.6314 113.066L76.7734 111.314C76.0132 109.761 74.072 102.33 74.4 102.227C74.4678 102.205 76.2663 102.462 78.3456 102.79C83.1674 103.551 86.3417 103.371 92.7045 101.978C99.9619 100.388 99.2796 100.239 98.4324 97.5501L93.6697 98.7701C86.5679 100.589 79.3479 100.666 75.0732 98.9691C73.8875 98.4976 73.8639 98.4438 73.8057 95.9802C73.7587 94.019 73.9747 87.3197 74.0992 86.8801C74.115 86.8249 75.3397 86.6865 76.8205 86.573C80.0986 86.3216 85.4623 84.6833 89.1873 82.7953C91.8431 81.4503 91.9463 81.3395 91.5933 80.2193C91.1002 78.6543 90.6255 78.6081 88.4161 79.9092C84.5009 82.2132 75.0254 84.5214 74.6299 83.2662C74.5249 82.9329 76.2077 71.4177 76.4396 70.8852C76.4646 70.8263 78.0373 70.5989 79.9443 70.3778C81.8509 70.1574 84.0402 69.7771 84.8244 69.53C86.0366 69.1481 86.2011 68.9411 85.9426 68.1206C85.4539 66.5697 84.903 66.4271 81.938 67.0792C78.8869 67.751 77.5673 67.7945 77.3896 67.2307C77.2603 66.8202 79.259 57.1186 79.2027 56.9398C79.1085 56.6408 77.0481 54.223 76.8459 53.9824L75.5087 60.6773C74.7737 64.3556 74.0772 67.4013 73.9623 67.4375C73.5249 67.5753 70.5453 66.9481 68.4987 66.2877L66.2991 65.578L67.0324 61.8545C68.9915 51.9077 69.8769 46.189 69.508 45.862C69.3031 45.6806 68.582 45.6943 67.9544 45.8921C67.0768 46.1686 66.7494 46.5878 66.6448 47.5686C66.568 48.2908 65.815 52.3338 64.964 56.6005L63.4222 64.3247L61.8959 63.5645C60.479 62.8586 60.3949 62.7278 60.7214 61.7289C61.8747 58.1944 63.1862 50.494 63.1356 47.5485C63.1212 46.7103 62.9242 46.6267 61.582 46.8894C60.1534 47.1681 60.0444 47.3029 60.0355 48.8009Z" fill="#1C1C1C"/>
</svg>
