<svg width="178" height="148" viewBox="0 0 178 148" fill="none" xmlns="http://www.w3.org/2000/svg">
<circle cx="111.171" cy="111.103" r="110.48" fill="#E30613"/>
<mask id="mask0_356_1052" style="mask-type:alpha" maskUnits="userSpaceOnUse" x="0" y="0" width="222" height="222">
<circle cx="111.171" cy="111.103" r="110.48" fill="#E30613"/>
</mask>
<g mask="url(#mask0_356_1052)">
<path fill-rule="evenodd" clip-rule="evenodd" d="M178.918 -42.4748C178.918 -56.0884 167.933 -67.1244 154.383 -67.1244H91.9304C78.3802 -67.1244 67.3955 -56.0884 67.3955 -42.4748V21.0755C67.3955 34.6892 78.3802 45.7247 91.9304 45.7247H154.383C167.933 45.7247 178.918 56.7609 178.918 70.3742V132.313C178.918 145.926 189.903 156.963 203.453 156.963H265.905C279.455 156.963 290.44 145.926 290.44 132.313V68.7619C290.44 55.1486 279.455 44.1129 265.905 44.1129H203.453C189.903 44.1129 178.918 33.077 178.918 19.4634V-42.4748Z" fill="#EE3944"/>
<path fill-rule="evenodd" clip-rule="evenodd" d="M51.2405 -18.5029C51.2405 -32.1165 40.2045 -43.1525 26.5909 -43.1525H-36.1534C-49.767 -43.1525 -60.803 -32.1165 -60.803 -18.5029V45.0475C-60.803 58.6611 -49.767 69.6966 -36.1534 69.6966H26.5909C40.2045 69.6966 51.2405 80.7329 51.2405 94.3461V156.285C51.2405 169.898 62.2768 180.934 75.89 180.934H138.634C152.248 180.934 163.284 169.898 163.284 156.285V92.7338C163.284 79.1206 152.248 68.0848 138.634 68.0848H75.89C62.2768 68.0848 51.2405 57.0489 51.2405 43.4353V-18.5029Z" fill="#EE3944"/>
<path fill-rule="evenodd" clip-rule="evenodd" d="M37.1698 111.78C37.1698 98.1667 26.1852 87.1307 12.6349 87.1307H-49.8176C-63.3679 87.1307 -74.3525 98.1667 -74.3525 111.78V175.331C-74.3525 188.944 -63.3679 199.98 -49.8176 199.98H12.6349C26.1852 199.98 37.1698 211.016 37.1698 224.629V286.568C37.1698 300.181 48.1547 311.218 61.7047 311.218H124.157C137.707 311.218 148.692 300.181 148.692 286.568V223.017C148.692 209.404 137.707 198.368 124.157 198.368H61.7047C48.1547 198.368 37.1698 187.332 37.1698 173.718V111.78Z" fill="#EE3944"/>
</g>
</svg>
