<svg width="665" height="725" viewBox="0 0 665 725" fill="none" xmlns="http://www.w3.org/2000/svg">
<path d="M501.205 11.3526C659.995 -31.92 823.799 61.7249 867.072 220.515C910.345 379.305 816.699 543.11 657.909 586.383C619.984 596.718 581.773 599.241 544.986 594.934C491.311 673.386 401.101 724.867 298.867 724.867C134.286 724.867 0.867188 591.448 0.867188 426.867C0.867443 262.287 134.287 128.867 298.867 128.867C310.558 128.867 322.092 129.541 333.432 130.851C371.966 74.3442 430.044 30.745 501.205 11.3526Z" fill="#FBBA09"/>
<mask id="mask0_17_1247" style="mask-type:alpha" maskUnits="userSpaceOnUse" x="1" y="0" width="877" height="725">
<path d="M501.338 11.3526C660.128 -31.92 823.932 61.7249 867.205 220.515C910.478 379.305 816.832 543.11 658.042 586.383C620.117 596.718 581.906 599.241 545.119 594.934C491.443 673.386 401.234 724.867 299 724.867C134.419 724.867 1 591.448 1 426.867C1.00026 262.287 134.419 128.867 299 128.867C310.691 128.867 322.225 129.541 333.564 130.851C372.099 74.3442 430.177 30.745 501.338 11.3526Z" fill="#FBBA09"/>
</mask>
<g mask="url(#mask0_17_1247)">
<path d="M331.969 316.635C236.191 488.943 77.7159 418.547 141.365 231.966C-30.9439 136.19 39.4544 -22.2837 226.036 41.363C321.787 -130.934 480.289 -60.5486 416.64 126.031C588.908 221.7 518.523 380.292 331.969 316.635Z" fill="#FFDF87"/>
<path d="M884.456 397.122C788.677 569.43 630.202 499.034 693.851 312.453C521.543 216.677 591.941 58.2031 778.522 121.85C874.273 -50.4474 1032.78 19.9382 969.127 206.518C1141.39 302.187 1071.01 460.779 884.456 397.122Z" fill="#FFDF87"/>
<path d="M332.456 824.122C236.677 996.43 78.2024 926.034 141.851 739.453C-30.4574 643.677 39.941 485.203 226.522 548.85C322.273 376.553 480.776 446.938 417.127 633.518C589.394 729.187 519.01 887.779 332.456 824.122Z" fill="#FFDF87"/>
</g>
</svg>
