<svg width="90" height="90" viewBox="0 0 90 90" fill="none" xmlns="http://www.w3.org/2000/svg">
<rect width="90" height="90" rx="30" fill="#6BB1DC"/>
<path d="M52.4943 20.7141C52.4374 20.6782 52.3403 20.6537 52.2178 20.6704C52.3088 20.6861 52.4033 20.6984 52.4943 20.7141Z" fill="white"/>
<path d="M68.5987 62.8805C68.6494 50.1335 68.5943 35.6531 68.5987 21.7205C63.1326 20.5611 57.0373 21.4799 52.4943 20.7142C52.6028 20.7834 52.5582 20.898 52.2178 20.8805C49.4449 20.492 48.8123 21.115 47.1778 20.8805C47.7317 20.6346 47.9093 20.6197 47.3878 20.2505C47.3178 20.2505 47.2478 20.2505 47.1778 20.2505C47.9198 20.9575 45.9931 21.1614 46.1278 20.2505C45.4978 20.2505 44.8678 20.2505 44.2378 20.2505C44.7103 20.7414 43.1782 21.1657 42.7678 20.8805C42.6208 20.7781 44.1678 20.4491 43.1878 20.2505C43.0478 20.2505 42.9078 20.2505 42.7678 20.2505C41.9296 21.0074 40.5138 20.1936 39.6178 21.0905C40.0413 20.037 38.6632 20.7851 38.5678 20.2505C38.4978 20.2505 38.4278 20.2505 38.3578 20.2505C38.0218 20.6154 37.4128 20.7055 36.6778 20.6705C36.6778 20.5305 36.6778 20.3905 36.6778 20.2505C36.0478 20.2505 35.4178 20.2505 34.7878 20.2505C32.0587 21.0905 29.2631 20.1429 26.8078 20.6705C26.2303 20.7947 25.8051 21.4904 25.1278 21.0905C25.1637 20.8455 25.4594 20.8621 25.7578 20.8805C24.4733 20.3091 21.1334 20.0755 20.5078 21.7205V24.2405C20.8561 24.671 20.8561 26.54 20.5078 26.9705V31.8005C20.7458 41.3476 20.9331 53.6125 21.1378 62.4605C21.1921 64.8125 19.4806 69.3817 23.0278 69.3905H23.2378C25.2188 68.8952 27.2033 69.1761 29.5378 69.1814V69.3905H29.9578C43.2569 68.6327 55.0003 68.6712 68.1778 68.7605C69.4326 67.2109 68.5908 64.7346 68.5987 62.8805ZM66.9178 66.8696C62.9961 66.6036 58.6902 67.0061 54.7378 66.6596C49.6882 66.2177 44.0313 66.993 40.2478 66.0296C39.9241 66.1407 40.2347 66.2492 40.4578 66.2396C35.3583 66.7287 31.5267 66.4102 26.8078 65.8196C26.4972 66.2527 25.3221 66.5852 23.8678 66.4505C23.9326 66.1652 24.3937 66.2764 24.7078 66.2405C22.9832 64.9604 24.2721 61.631 23.8678 58.4705C25.3947 56.5026 27.4588 59.0104 29.1178 58.8896C31.1994 58.7391 31.1391 56.6872 32.6878 55.5296C33.2312 57.2455 34.9628 58.8292 35.4178 59.9396C36.2386 60.1584 35.4161 60.1461 35.1028 59.8285C36.3514 63.1237 39.3562 57.1212 40.0378 55.1096C41.6819 55.4894 41.7511 57.1842 43.3978 56.9996C45.7384 56.7362 46.0149 51.4364 47.3878 49.6496C48.2418 51.2299 50.9832 53.1041 52.0078 50.4896C51.9833 50.417 51.9579 50.3802 51.9343 50.3627C51.8888 50.4747 51.8433 50.5902 51.7978 50.6996C51.7908 50.5264 51.8538 50.305 51.9343 50.3627C53.7613 45.8897 55.6644 39.8339 59.1469 36.4187C61.9163 40.0482 63.0626 33.9171 61.8769 31.5887C58.8381 30.6665 53.5347 31.531 57.0469 34.1087C53.9223 37.8441 51.4811 42.2629 49.9069 47.5487C48.2961 47.1349 48.4518 45.1442 46.7569 45.2387C44.3419 45.3726 44.1704 50.8912 42.7661 52.7987C41.4483 52.3665 41.2812 50.7845 39.8261 50.4887C37.5747 51.1765 37.4776 54.0202 36.2561 55.7387C34.6627 54.5514 34.9479 50.8519 32.8961 50.6987C30.6237 50.5299 30.1179 54.8777 28.6961 55.5287C26.9531 54.8629 24.6737 54.0929 23.4461 55.1096C22.7863 45.1994 23.6561 33.7062 23.0261 23.3996C38.5144 22.9332 51.2159 23.4495 66.9161 23.1896C66.9178 37.7496 66.9178 52.3096 66.9178 66.8696Z" fill="white"/>
<path d="M35.1029 59.8284C35.0661 59.733 35.0311 59.6315 34.9979 59.5195C34.9734 59.6447 35.0215 59.747 35.1029 59.8284Z" fill="white"/>
</svg>
