<svg width="90" height="90" viewBox="0 0 90 90" fill="none" xmlns="http://www.w3.org/2000/svg">
<rect width="90" height="90" rx="30" fill="#6BB1DC"/>
<path fill-rule="evenodd" clip-rule="evenodd" d="M23.7942 55.3061H24.0568H24.1879C24.582 56.3564 24.4507 55.3061 24.1879 55.4374L25.6323 56.7505C26.2886 57.1442 27.3391 57.5381 28.1267 57.6692C31.8027 58.5884 36.2666 58.9825 40.0737 58.4571C42.437 58.1946 43.0934 57.4069 44.9315 57.013C45.3255 58.9825 45.4568 59.7699 45.4568 62.0018C45.4568 63.1833 45.3255 64.8901 44.669 65.6778C43.8812 66.4657 41.5179 67.7785 39.9427 67.7785C37.9734 67.7785 36.3979 67.1221 34.9539 66.597C31.8027 65.5465 26.1575 62.7896 24.8447 59.5073L23.7942 56.3564C23.4004 55.1748 23.4004 57.4069 23.6631 55.7002L23.7942 55.3061ZM22.2187 41.9149C26.2886 43.7529 23.6631 44.5407 23.1379 47.9543C22.7439 50.5798 22.7439 50.1859 24.1879 52.1552C25.8949 54.3872 28.7831 55.7002 32.0652 55.8313C31.6717 53.7307 30.6212 54.5185 30.4899 51.3676C30.4899 48.6105 31.1465 48.3479 32.1965 46.7724C34.0347 46.9038 33.6407 47.1664 35.0851 47.4292C34.8225 45.9848 33.1158 44.4093 32.1965 42.9652C30.6212 39.8144 31.409 42.5713 29.8335 37.9765C28.5205 38.1075 25.3696 39.683 23.9255 40.3393C21.5625 41.5212 22.4814 41.1271 22.2187 41.9149ZM18.2802 41.6523L21.6938 44.4093C21.1686 51.4988 19.1991 49.5297 22.6128 59.3762C23.7942 62.9209 23.7942 62.5271 26.1575 64.6275C27.2077 65.5465 27.8642 65.8091 28.9143 66.4657C36.6606 71.9798 47.5575 72.1109 47.4261 60.9516C47.4261 59.5073 47.0321 55.7002 46.2442 54.6498L45.4568 53.862C41.7808 56.4877 37.9734 56.094 33.5096 55.9626C33.6407 55.8313 33.6407 55.8313 33.6407 55.7002C33.6407 55.7002 33.7721 55.5688 33.7721 55.4374C34.5599 53.4683 31.8027 52.9429 32.5906 50.1859C32.9844 49.1356 33.6407 49.6606 33.6407 49.6606C37.0543 50.5798 37.317 51.7615 38.8924 49.9236C38.4985 47.8228 35.7415 44.1468 34.5599 42.44C31.6717 38.5014 31.9341 36.7948 30.2275 35.3507L21.1686 39.0266C19.7246 39.2892 19.987 38.6327 18.4115 39.5517C18.0176 39.683 18.2802 39.5517 18.0176 39.683L18.2802 41.6523ZM29.7022 32.8561C29.7022 32.3309 30.7525 33.2499 29.7022 32.3309C29.0458 31.6744 28.6518 31.9372 28.3894 31.8058C28.258 29.5739 28.3894 30.8866 28.7831 30.6241C28.6518 30.6241 28.5205 30.3616 28.5205 30.493C28.5205 30.493 28.258 30.3616 28.258 29.8365C30.4899 28.6548 31.8027 24.1912 42.9623 20.3838L50.0518 19.2021C52.6776 19.2021 53.0714 20.1211 55.172 20.5152C56.7474 20.9089 61.2112 19.9898 62.5241 26.2916L67.7756 25.8978L68.1696 26.5543C68.3008 26.5543 68.3008 26.5543 68.4321 26.6855L69.0883 27.2108C68.5634 29.7053 67.1193 31.8058 65.8061 33.2499C62.9179 36.5321 63.9682 38.5014 62.3929 39.0266C60.0295 39.1578 58.8481 38.1075 56.7474 37.8451C55.172 37.5824 51.4959 37.4512 49.7894 37.4512C49.7894 36.2695 49.6581 36.2695 49.5265 35.088C50.183 34.6942 50.5767 34.1688 51.2335 33.6439C51.3646 33.6439 51.3646 33.6439 51.3646 33.5126L52.9403 32.3309C51.6271 28.7862 50.183 29.18 49.264 27.8672L49.1327 27.6046C44.0126 31.4119 44.8001 31.6744 42.1746 34.4315C37.4482 39.2892 39.5489 39.9457 35.4788 36.5321C34.4285 35.6129 30.8839 33.5126 29.7022 32.8561ZM51.3646 26.1603C51.7585 27.0794 51.3646 26.4229 52.2839 27.3421C52.8086 27.736 52.9403 27.8672 53.3339 28.3924C57.0101 33.7751 55.0406 32.7248 53.4652 35.088C59.8983 35.2193 56.7474 35.6129 61.3425 36.4008C61.4738 36.1383 61.4738 36.2695 61.7365 35.8756C62.2617 34.8254 61.999 34.1688 63.7057 32.1999C64.6247 31.1492 65.8061 30.2304 66.2001 28.5237C64.756 28.2609 63.1806 28.9175 61.3425 28.9175C60.4235 26.6855 60.2924 24.585 58.1915 23.5348C56.091 23.4034 53.4652 25.504 51.3646 26.1603ZM31.0151 30.493C35.3475 25.3727 43.3561 21.8279 50.0518 21.8279C52.6776 21.8279 52.5462 22.3531 53.0714 23.0096C52.9403 23.0096 52.8086 23.0096 52.8086 23.0096C49.7894 23.9285 48.4762 25.2415 46.3758 26.8168C44.1438 28.3924 43.0934 29.7053 41.3867 31.9372C40.3365 33.1185 39.0235 34.3002 38.3673 35.6129C37.1855 35.2193 37.317 34.9567 36.3979 34.1688C34.6912 32.7248 33.2469 32.1999 31.8027 31.1492L31.0151 30.493ZM51.2335 59.7699C51.7585 58.3257 55.0406 55.1748 56.2223 54.3872C56.8788 55.1748 57.0101 56.6191 57.6666 58.3257C60.8173 57.8006 61.6051 56.3564 63.9682 57.1442C64.6247 58.5884 64.6247 60.6889 64.4933 62.6582C62.6554 63.3147 61.8676 64.365 59.3732 64.6275L58.4543 63.8399C58.4543 63.8399 58.4543 63.8399 58.3229 63.8399C58.3229 63.7087 58.3229 63.7087 58.3229 63.7087C58.1915 63.5774 58.0602 63.3147 58.0602 63.3147L57.1413 64.6275C57.0101 65.1528 57.0101 66.3343 57.0101 66.9908C55.6971 66.0718 52.5462 61.4768 51.2335 59.7699ZM58.4543 44.278C59.2418 46.1161 57.9291 45.1971 59.5045 46.7724C60.5549 47.6915 63.1806 52.8117 62.7868 54.256L58.9794 55.3061C58.7169 54.9123 59.1108 55.7002 58.7169 54.781L57.4039 52.024C57.1413 52.4179 57.2726 52.2866 56.7474 52.4179C56.7474 52.5491 56.4847 52.5491 56.3535 52.6803L55.9598 52.8117C56.8788 51.4988 56.6162 52.5491 56.2223 51.6301C55.8286 52.1552 56.2223 51.7615 55.5661 52.024C53.859 52.9429 48.8702 58.3257 48.7389 59.2449L49.0015 61.2142C51.2335 63.052 51.4959 63.7087 53.2027 66.2032C53.9904 67.516 57.0101 70.4043 57.1413 70.7982C57.2726 70.7982 57.1413 70.6668 57.7975 70.6668C58.5853 70.5357 58.1915 70.6668 58.3229 70.7982C59.1108 69.0913 58.9794 69.6165 59.1108 67.3846L62.7868 66.2032C63.5744 65.8091 63.1806 65.8091 64.2309 65.5465L63.9682 66.0718C63.9682 66.0718 63.9682 66.2032 63.8371 66.2032V66.597C63.5744 67.6472 64.362 67.3846 63.7057 68.3038C64.362 68.1725 64.4933 68.3038 65.0186 68.1725C65.8061 68.0411 64.8874 68.3038 65.675 68.0411C70.0075 66.2032 72.1082 59.9012 71.9768 55.3061C71.8457 48.8732 71.1889 42.0461 68.0381 38.2389C65.2812 38.8951 60.1608 42.834 58.4543 44.278ZM61.0798 44.672L62.3929 47.0351C62.7868 47.8228 63.1806 48.3479 63.443 49.1356C64.0996 50.5798 64.4933 52.1552 65.0186 53.7307C67.5131 61.0828 66.069 59.5073 66.7253 64.4962C69.8762 63.052 70.0075 57.1442 69.8762 52.9429C69.8762 48.4793 69.4822 46.1161 67.9069 42.3087L67.2505 41.1271L61.0798 44.672Z" fill="white"/>
</svg>
