<svg width="90" height="90" viewBox="0 0 90 90" fill="none" xmlns="http://www.w3.org/2000/svg">
<rect width="90" height="90" rx="30" fill="#6BB1DC"/>
<path d="M37.2353 38.1174C40.5883 38.6468 44.0295 39.3527 47.5589 39.9704C47.7353 39.9704 58.0589 41.8233 58.3236 41.8233C58.6765 41.8233 58.9412 41.5586 58.9412 41.2939C59.7353 36.6174 58.6765 32.9115 55.853 30.4409C52.6765 27.7057 48.0883 26.9115 44.1177 28.3233C40.1471 29.7351 37.1471 33.2645 36.353 37.4115C36.2648 37.8527 36.7942 38.2939 37.2353 38.1174ZM38.5589 34.9409L39.7059 35.2939C40.0589 35.3821 40.4118 35.2057 40.5 34.8527C40.5883 34.4998 40.4118 34.1468 40.0589 34.0586L39.2648 33.8821C40.2353 32.4704 41.4706 31.2351 42.9706 30.4409V30.5292L43.6765 31.3233C43.9412 31.588 44.2942 31.588 44.6471 31.4115C44.9118 31.1468 44.9118 30.7939 44.7353 30.4409L44.2059 29.9115C44.2942 29.8233 44.4706 29.8233 44.5589 29.7351C45.9706 29.2057 47.5589 29.0292 49.0589 29.2057L48.8824 29.9998C48.7942 30.3527 49.0589 30.7057 49.4118 30.7939C49.7648 30.8821 50.1177 30.6174 50.2059 30.2645L50.3824 29.3821C51.7059 29.6468 52.9412 30.1762 54.0883 30.9704L53.7353 31.3233C53.4706 31.588 53.3824 31.9409 53.6471 32.2939C53.9118 32.5586 54.2648 32.6468 54.6177 32.3821L55.2353 31.8527C56.0295 32.5586 56.6471 33.3527 57.0883 34.2351C56.8236 34.3233 56.5589 34.4115 56.2942 34.588C56.0295 34.7645 55.9412 35.2057 56.1177 35.4704C56.2059 35.6468 56.4706 35.7351 56.6471 35.7351C56.8236 35.7351 56.9118 35.7351 57 35.6468C57.1765 35.5586 57.353 35.4704 57.5295 35.4704C57.7942 36.3527 57.8824 37.2351 57.9706 38.2939H57.2648C56.9118 38.2939 56.5589 38.5586 56.5589 38.9998C56.5589 39.4409 56.8236 39.7057 57.2648 39.7057H57.9706C57.9706 40.0586 57.8824 40.4115 57.8824 40.7645C55.0589 40.3233 52.1471 39.7939 49.2353 39.2645C49.1471 38.3821 48.6177 37.6762 47.9118 37.2351L49.853 34.4115C50.0295 34.1468 50.0295 33.7057 49.6765 33.5292C49.3236 33.3527 48.9706 33.3527 48.7942 33.7057L46.5883 36.8821V36.9704C45.7942 37.0586 44.9118 37.4998 44.4706 38.2057C44.3824 38.2939 44.3824 38.3821 44.3824 38.4704C42.1765 38.1174 40.0589 37.6762 38.0295 37.3233C38.0295 36.1762 38.2942 35.5586 38.5589 34.9409Z" fill="white"/>
<path d="M18.7059 63.7057C20.1176 64.8527 21.9706 65.2939 23.7353 65.7351C33.2647 68.1174 43.0588 69.8821 52.7647 71.4704C56.7353 72.088 60.9706 72.2645 63.4412 68.5586C64.5 66.9704 65.0294 65.1174 65.5588 63.3527C67.7647 55.6762 70.9412 48.3527 72.6176 40.588C73.147 38.0292 73.6764 35.3821 72.9706 32.9115C72.2647 30.3527 70.5 28.7645 67.3235 27.9704C54.5294 24.8821 44.9117 24.1762 38.8235 23.2056C36.8823 22.9409 34.9412 22.588 32.8235 23.4704C30.6176 24.3527 28.7647 26.4704 27.2647 29.7351C23.5588 38.1174 20.9117 47.0292 17.647 55.4998C16.5882 58.3233 16.9412 58.6762 16.7647 60.1762C16.6764 61.4998 17.7353 62.9115 18.7059 63.7057ZM21.4412 62.2939C21.4412 62.3821 21.4412 62.3821 21.4412 62.2939C20.1176 62.0292 18.8823 61.4115 18.4412 60.3527C17.9117 59.2939 18.1764 58.0586 18.6176 56.8233C20.647 57.7057 21.9706 60.088 21.4412 62.2939ZM57.4412 64.6762C58.8529 63.7939 60.7059 63.7056 62.2059 64.4998C60.9706 68.2939 58.9412 69.5292 55.4117 69.1762C55.147 67.4115 56.0294 65.6468 57.4412 64.6762ZM70.7647 34.4998C69.2647 34.4998 67.8529 33.7939 66.9706 32.6468C66.0882 31.588 65.9117 30.5292 66.2647 29.0292C66.5294 29.1174 66.7941 29.1174 66.9706 29.2056C69.7941 29.8233 71.0294 31.4998 70.7647 34.4998ZM35.647 24.2645V24.3527C35.7353 25.8527 34.8529 27.3527 33.6176 28.1468C32.3823 28.8527 30.7941 28.9409 29.5588 28.2351C30.9706 25.8527 32.8235 24.3527 35.647 24.2645ZM28.5 30.3527C28.6764 29.9998 28.7647 29.7351 28.9412 29.4704C30.7059 30.3527 32.8235 30.2645 34.3235 29.2939C36 28.3233 37.147 26.2939 37.0588 24.3527C37.5882 24.4409 38.1176 24.4409 38.647 24.5292C44.8235 25.4998 52.7647 26.0292 65.0294 28.6762C64.5882 30.6174 64.9412 32.0292 66 33.4409C67.147 34.8527 68.9117 35.6468 70.6764 35.7351V35.8233C69.7059 40.4998 68.1176 44.9998 66.6176 49.4115C63.1764 59.5586 63.3529 60.3527 62.5588 63.2645C60.7059 62.3821 58.4117 62.5586 56.7353 63.6174C54.9706 64.7645 53.9117 66.8821 54.0882 68.9998C53.647 68.9115 53.2059 68.8233 52.7647 68.7351C42.8823 66.7939 32.647 65.0292 22.6764 62.7351C12.7059 60.4409 22.6764 62.6468 22.7647 62.6468C23.3823 59.8233 21.7059 56.6468 19.0588 55.588C22.3235 47.0292 24.8823 38.4704 28.5 30.3527Z" fill="white"/>
<path d="M27.7059 54.2646C27.9706 54.3528 28.2353 54.441 28.5 54.441C29.8235 54.7057 31.147 53.9116 31.4118 52.5881C32.1176 49.5881 33 46.4116 34.147 42.9704C34.5882 41.6469 33.8823 40.2352 32.4706 39.8822L32.2059 39.794C30.9706 39.441 29.7353 40.1469 29.2941 41.3822C28.147 44.8234 27.0882 48.3528 26.2059 51.794C26.1176 52.8528 26.7353 53.9116 27.7059 54.2646ZM27.6176 52.1469C28.5 48.7057 29.5588 45.1763 30.6176 41.8234C30.7941 41.3822 31.147 41.1175 31.6765 41.1175C31.8529 41.1175 32.0294 41.2057 32.2059 41.2057C32.8235 41.3822 33.1765 41.9999 32.9118 42.6175C31.7647 46.1469 30.7941 49.3234 30.0882 52.4116C29.9118 53.0293 29.3823 53.3822 28.7647 53.2057C28.5 53.1175 28.2353 53.1175 28.0588 53.0293C27.7941 52.8528 27.5294 52.4999 27.6176 52.1469Z" fill="white"/>
<path d="M57.1765 46.8528C56.0295 50.2057 54.9706 53.7352 54.0883 57.1763C53.8236 58.3234 54.5295 59.5587 55.6765 59.9116C55.9412 59.9999 56.2059 60.0881 56.4706 60.0881C57.6177 60.3528 58.853 59.5587 59.1177 58.4116C59.8236 55.3234 60.7942 52.0587 61.9412 48.441C62.3824 47.2057 61.6765 45.8822 60.353 45.5293L59.8236 45.3528C58.7648 45.0881 57.6177 45.7057 57.1765 46.8528ZM59.3824 46.6763H59.6471L60.1765 46.8528C60.7059 47.0293 60.9706 47.5587 60.7942 48.0881C59.5589 51.7057 58.6765 54.9704 57.8824 58.1469C57.7942 58.6763 57.2648 58.941 56.8236 58.8528C56.5589 58.7646 56.2942 58.7646 56.1177 58.6763C55.6765 58.4999 55.3236 58.0587 55.5 57.5293C56.3824 54.0881 57.353 50.6469 58.5 47.294C58.5883 46.941 58.9412 46.6763 59.3824 46.6763Z" fill="white"/>
<path d="M29.2941 22.2352C29.5588 22.4999 30 22.4999 30.2647 22.2352C30.5294 21.9705 30.5294 21.5293 30.2647 21.2646L28.6764 19.8528C28.4117 19.5881 27.9706 19.5881 27.7059 19.8528C27.4411 20.1175 27.4411 20.5587 27.7059 20.8234L29.2941 22.2352Z" fill="white"/>
<path d="M33.0882 21.3527C33.4411 21.3527 33.7058 20.9998 33.7058 20.6469L33.5293 18.7939C33.5293 18.441 33.1764 18.1763 32.8235 18.1763C32.4705 18.1763 32.2058 18.5292 32.2058 18.8822L32.3823 20.7351C32.4705 21.088 32.7352 21.3527 33.0882 21.3527Z" fill="white"/>
<path d="M36.6177 21.529C36.9706 21.7055 37.3236 21.529 37.5 21.1761L38.2941 19.3232C38.4706 18.9702 38.2941 18.6173 37.9412 18.4408C37.5883 18.2643 37.2353 18.4408 37.0589 18.7938L36.2647 20.6467C36.1765 20.9996 36.2647 21.3526 36.6177 21.529Z" fill="white"/>
</svg>
