<svg width="91" height="90" viewBox="0 0 91 90" fill="none" xmlns="http://www.w3.org/2000/svg">
<rect x="0.5" width="90" height="90" rx="30" fill="#6BB1DC"/>
<path d="M71.4841 25.103C71.3639 24.3873 71.0766 23.7101 70.6456 23.1263C70.2145 22.5425 69.6518 22.0685 69.0033 21.743C63.0337 18.3494 57.5849 23.6582 57.1257 24.1286C55.9252 25.2194 54.7831 26.3727 53.7041 27.5838C49.7841 31.8902 42.5937 40.9342 38.7073 53.1198V53.1646C38.0235 56.2649 37.6539 59.4262 37.6041 62.6006C37.6041 62.8862 37.6041 63.1606 37.6321 63.4126C37.6317 64.8634 37.9712 66.2942 38.6233 67.5902C35.8233 67.8702 33.8689 67.4726 32.9001 66.3862C31.7297 65.0814 31.6905 62.6062 32.7881 58.815C33.0345 58.0027 33.2217 57.1736 33.3481 56.3342C33.6001 54.447 33.2977 53.1926 32.4129 52.4702C31.9049 52.0773 31.2798 51.8663 30.6377 51.871C28.9857 51.8206 26.5721 52.7054 22.9825 54.615C22.0753 55.0798 21.5881 55.0798 21.4201 54.9678C20.3617 53.9598 22.1033 47.4414 24.4497 41.7238L24.6849 41.1638C24.7381 41.0607 24.7694 40.9476 24.7767 40.8317C24.7841 40.7159 24.7673 40.5998 24.7276 40.4907C24.6878 40.3817 24.6258 40.282 24.5456 40.1981C24.4654 40.1142 24.3686 40.0478 24.2615 40.0032C24.1543 39.9585 24.0391 39.9366 23.923 39.9387C23.807 39.9408 23.6926 39.967 23.5871 40.0155C23.4817 40.0641 23.3874 40.134 23.3104 40.2208C23.2333 40.3075 23.175 40.4094 23.1393 40.5198C21.8345 43.6054 17.7689 53.8814 20.3001 56.1998C21.0897 56.9222 22.2489 56.8886 23.7441 56.0934C28.9577 53.2934 30.7441 53.2934 31.3265 53.7694C31.6121 53.999 32.1553 54.8894 31.1641 58.3446C29.8761 62.8246 30.0441 65.703 31.6345 67.5006C32.7545 68.7438 34.5129 69.3598 36.9881 69.3598C38.177 69.3473 39.3627 69.2349 40.5329 69.0238H40.6337C41.8713 69.0238 43.5401 67.8366 45.8473 65.339C48.0028 62.9466 50.0184 60.4318 51.8841 57.807L51.9177 57.751C52.0017 57.611 60.1273 43.8462 65.3129 36.4094C65.3129 36.4094 65.3129 36.3702 65.3465 36.3534C66.2936 34.9164 67.3535 33.5569 68.5161 32.2878C68.6897 32.1198 72.0049 28.4406 71.4841 25.103ZM54.5889 29.1294C56.1484 29.6675 57.6317 30.4053 59.0017 31.3246C53.5417 38.3638 48.4681 45.823 45.0633 54.0606C44.7154 53.59 44.2629 53.2066 43.7417 52.9406C43.9881 52.3806 44.3689 51.5798 44.8617 50.5886C46.3577 47.4706 48.0679 44.4599 49.9801 41.5782C50.4505 40.8782 50.9377 40.2062 51.4305 39.5734C51.4571 39.5452 51.4775 39.5118 51.4906 39.4753C51.5036 39.4388 51.5089 39.3999 51.5061 39.3613C51.5034 39.3226 51.4926 39.2849 51.4745 39.2506C51.4564 39.2163 51.4314 39.1862 51.4011 39.162C51.3707 39.1379 51.3357 39.1203 51.2982 39.1105C51.2607 39.1006 51.2216 39.0986 51.1833 39.1046C51.145 39.1107 51.1083 39.1246 51.0757 39.1455C51.0431 39.1664 51.0151 39.1939 50.9937 39.2262C47.3873 43.8126 44.2401 50.4878 43.2601 52.711C42.6078 52.4701 41.917 52.3505 41.2217 52.3582H40.7625C44.4809 41.4886 50.8313 33.3182 54.5889 29.1294ZM40.5889 67.3494C40.1465 67.0694 39.4297 66.1734 39.2841 63.3622C39.7715 63.3473 40.2593 63.381 40.7401 63.463C41.9241 63.6475 43.0439 64.1228 43.9993 64.8462C41.4065 67.5342 40.6169 67.3494 40.6113 67.3494H40.5889ZM45.1529 63.6086C43.5256 62.3433 41.5188 61.6646 39.4577 61.6822H39.2673C39.3755 59.1399 39.6844 56.6102 40.1913 54.1166C42.1065 53.691 44.0441 54.5758 44.2289 56.799C44.3633 58.339 45.4665 57.023 47.2809 56.799C48.2385 56.6478 49.4761 56.4798 50.1817 57.2806C49.4201 58.3278 47.3313 61.1894 45.1753 63.6086H45.1529ZM51.1001 55.8134C50.3627 55.2319 49.4395 54.9374 48.5017 54.9846C47.7852 54.9931 47.0725 55.089 46.3793 55.2702C47.4993 52.3078 51.0777 44.1654 60.1441 32.5734L60.3345 32.3214C61.594 33.3368 62.7044 34.5244 63.6329 35.8494C59.2985 42.155 53.1049 52.4702 51.1001 55.8134ZM64.6745 34.399C63.5369 32.9185 62.203 31.5997 60.7097 30.479C59.2095 29.3686 57.5671 28.4645 55.8265 27.791C56.8065 26.755 57.5569 26.0382 57.9489 25.6742C62.4289 26.6934 65.6209 30.115 66.8361 31.627C66.0676 32.5126 65.346 33.4379 64.6745 34.399ZM67.9505 30.3334C66.6187 28.7227 65.0518 27.3219 63.3025 26.1782L63.0785 26.0326C62.8433 25.887 62.6081 25.747 62.3617 25.607C61.4395 25.0932 60.4699 24.6693 59.4665 24.3414C60.0751 23.8836 60.7279 23.4878 61.4153 23.1598C63.8009 22.0398 66.0745 22.0398 68.1689 23.2438C68.5998 23.4382 68.9775 23.7336 69.27 24.105C69.5624 24.4764 69.761 24.9129 69.8489 25.3774C70.0841 27.0238 68.8689 29.1014 67.9505 30.3334Z" fill="white"/>
<path d="M43.9881 47.7552C44.025 47.763 44.0632 47.763 44.1001 47.7552C44.1548 47.7553 44.2083 47.7395 44.2541 47.7097C44.2998 47.6798 44.3359 47.6372 44.3577 47.5872C44.5649 47.0944 44.7889 46.6016 45.0241 46.1088C45.0399 46.0753 45.049 46.039 45.0508 46.0021C45.0526 45.9651 45.0471 45.9282 45.0346 45.8933C45.0221 45.8585 45.0029 45.8264 44.9781 45.799C44.9532 45.7716 44.9232 45.7494 44.8897 45.7336C44.8563 45.7177 44.82 45.7087 44.783 45.7069C44.7461 45.7051 44.7091 45.7106 44.6743 45.723C44.6394 45.7355 44.6074 45.7548 44.58 45.7796C44.5526 45.8045 44.5303 45.8345 44.5145 45.868C44.2793 46.372 44.0553 46.8704 43.8425 47.3688C43.8241 47.4032 43.8132 47.4412 43.8106 47.4803C43.8081 47.5193 43.8139 47.5584 43.8277 47.595C43.8415 47.6316 43.8629 47.6648 43.8906 47.6924C43.9183 47.72 43.9515 47.7414 43.9881 47.7552Z" fill="white"/>
<path d="M45.5001 44.4846C45.5394 44.5069 45.5838 44.5185 45.6289 44.5182C45.6807 44.5182 45.7315 44.5041 45.7759 44.4775C45.8203 44.4509 45.8566 44.4127 45.8809 44.367C47.8326 40.7412 50.0507 37.2652 52.5169 33.9678C52.539 33.9384 52.555 33.9049 52.5642 33.8693C52.5733 33.8337 52.5753 33.7966 52.5701 33.7602C52.5649 33.7238 52.5526 33.6888 52.5339 33.6572C52.5151 33.6255 52.4903 33.5979 52.4609 33.5758C52.401 33.5327 52.3267 33.5144 52.2536 33.5248C52.1806 33.5353 52.1144 33.5736 52.0689 33.6318C49.5949 36.9571 47.3676 40.459 45.4049 44.1094C45.3694 44.1722 45.3595 44.2462 45.3773 44.3161C45.395 44.386 45.439 44.4464 45.5001 44.4846Z" fill="white"/>
<path d="M66.8641 23.2104C66.6211 23.1149 66.3699 23.0418 66.1137 22.992C66.041 22.9787 65.966 22.9939 65.9044 23.0347C65.8428 23.0754 65.7994 23.1384 65.7833 23.2104C65.7759 23.2465 65.7757 23.2836 65.7827 23.3197C65.7897 23.3558 65.8037 23.3902 65.824 23.4209C65.8443 23.4516 65.8704 23.4779 65.9009 23.4985C65.9314 23.5191 65.9656 23.5335 66.0017 23.5408C66.228 23.5835 66.4508 23.6434 66.6681 23.72C66.6996 23.7254 66.7317 23.7254 66.7633 23.72C66.8375 23.7334 66.914 23.7167 66.976 23.6737C67.038 23.6306 67.0803 23.5647 67.0937 23.4904C67.107 23.4162 67.0903 23.3396 67.0473 23.2777C67.0042 23.2157 66.9383 23.1734 66.8641 23.16V23.2104Z" fill="white"/>
<path d="M64.6408 22.9188C63.4903 23.0461 62.3875 23.4496 61.4264 24.0948C61.3674 24.1394 61.3279 24.2052 61.3165 24.2783C61.305 24.3515 61.3223 24.4262 61.3648 24.4868C61.3897 24.5233 61.4231 24.5531 61.4621 24.5736C61.5012 24.5941 61.5447 24.6047 61.5888 24.6044C61.6469 24.6048 61.7036 24.5872 61.7512 24.554C62.6322 23.9676 63.6399 23.5991 64.6912 23.4788C64.765 23.4717 64.8332 23.4361 64.8812 23.3797C64.9293 23.3233 64.9535 23.2504 64.9488 23.1764C64.9391 23.1027 64.9021 23.0353 64.845 22.9876C64.788 22.9399 64.7151 22.9153 64.6408 22.9188Z" fill="white"/>
</svg>
