<svg width="90" height="90" viewBox="0 0 90 90" fill="none" xmlns="http://www.w3.org/2000/svg">
<rect width="90" height="90" rx="30" fill="#6BB1DC"/>
<path d="M68.9036 31.4535C68.9984 31.1692 68.9036 30.7901 68.4296 30.6953C59.9942 28.1363 52.6962 22.9234 44.0715 21.0278C37.816 19.7009 31.0867 19.7009 25.2104 22.3547C25.8738 21.8808 26.3477 21.0278 26.5373 20.3644C26.8216 18.753 25.4949 17.3314 23.9784 17.0469C22.367 16.7626 20.8505 17.8053 20.3766 19.2269C20.0923 20.0799 20.1871 22.0702 21.4192 22.0702C21.6088 38.6566 22.367 55.0533 21.7035 71.6396C21.7035 71.8294 21.7983 72.0186 21.8931 72.1137C21.8931 72.398 21.9879 72.6824 22.367 72.7772C29.0016 75.0519 26.8216 59.2234 26.8216 56.4748C26.8216 52.3996 26.8216 48.1345 26.6321 43.8693C36.0152 42.2581 45.3036 45.7647 54.7814 43.3954C60.7526 41.879 68.335 38.9408 69.7565 32.1167C69.7568 31.5482 69.2828 31.264 68.9036 31.4535ZM22.9357 71.545C23.5991 55.0534 23.9783 38.1827 21.9879 21.7859C21.9879 21.6911 21.9879 21.5016 21.8931 21.5016C21.7983 21.4068 21.7035 21.4068 21.514 21.4068C20.5662 21.2172 21.514 19.3216 21.8931 18.9425C22.5566 18.2791 23.4096 18.0895 24.2626 18.4686C25.1156 18.8477 25.5895 19.7955 25.1156 20.7433C24.7365 21.5016 23.9783 21.5016 23.3148 21.8807C23.0305 22.0702 23.0305 22.4493 23.22 22.6389V22.7337C23.4096 30.6951 24.926 38.5618 25.3052 46.523C25.4947 50.2194 25.5895 53.821 25.5895 57.5174C25.5897 59.1288 26.0636 71.924 22.9357 71.545ZM45.967 42.8271C39.4274 43.0166 32.8877 41.0262 26.5374 43.1114C26.2531 36.4768 25.6844 29.8423 24.0732 23.6816C31.9399 21.2174 39.617 21.2174 47.5783 23.7764C54.5918 25.9563 60.8474 30.8849 68.1454 32.0222C68.24 32.0222 68.4297 32.0222 68.5245 32.0222C65.4917 40.0785 53.5494 42.5427 45.967 42.8271Z" fill="white"/>
</svg>
