<svg width="254" height="268" viewBox="0 0 254 268" fill="none" xmlns="http://www.w3.org/2000/svg">
<path d="M5.53646 183.185C4.80512 182.73 4.59143 181.812 4.8954 180.431C5.0162 179.926 5.15539 179.373 5.31298 178.77C5.61961 177.657 5.97885 176.769 6.39069 176.107C7.62619 174.122 8.92616 173.47 10.2906 174.15C10.9523 174.562 11.7194 174.979 12.592 175.401C14.3437 176.274 16.4 177.24 18.7609 178.298L18.9176 178.396C19.7534 178.916 19.8895 179.629 19.326 180.535C18.8166 181.353 18.1659 181.564 17.3738 181.168L9.29523 177.263L9.26271 177.315C9.18685 177.437 8.97472 177.933 8.62632 178.803C8.11766 180.009 7.95911 180.671 8.15065 180.79L8.59468 181.067L14.9917 183.889L15.3051 184.084C16.1758 184.625 16.351 185.314 15.8308 186.15C15.3322 186.951 14.7424 187.2 14.0614 186.897L5.84989 183.381L5.53646 183.185Z" fill="black"/>
<path d="M10.652 172.944C9.96129 172.464 9.75976 171.838 10.0475 171.064L10.4861 170.432C11.1294 169.505 11.9049 168.658 12.8127 167.89C15.2046 165.955 17.2346 165.567 18.9025 166.725C20.4188 167.777 20.9789 169.452 20.5828 171.749C20.486 172.356 20.171 173.223 19.6377 174.351C19.6933 174.415 19.7886 174.493 19.9234 174.587C20.0918 174.704 20.1904 174.76 20.2189 174.754C20.3031 174.813 20.4042 174.883 20.5222 174.965C20.6518 175.03 20.7587 175.092 20.843 175.15C20.9221 175.18 20.9869 175.213 21.0374 175.248L21.2901 175.423C22.1662 176.032 22.306 176.765 21.7095 177.624C21.1597 178.416 20.4655 178.571 19.6269 178.089L10.9223 173.094C10.8938 173.099 10.8037 173.049 10.652 172.944ZM16.8087 172.761L16.9196 172.763C17.1077 172.744 17.3432 172.171 17.6262 171.044C17.8283 170.286 17.6513 169.714 17.0953 169.328C16.6573 169.023 16.0136 169.213 15.1644 169.897C14.7189 170.287 14.3105 170.677 13.939 171.069L14.318 171.332C15.7501 172.326 16.5803 172.803 16.8087 172.761Z" fill="black"/>
<path d="M18.8284 165.829C17.3062 164.646 16.8597 163.65 17.4891 162.84C18.0681 162.095 18.748 161.922 19.5288 162.321C21.4991 163.931 23.1804 165.043 24.573 165.657C25.4401 166.046 25.9429 166.151 26.0814 165.973C26.2198 165.795 26.199 165.337 26.0189 164.599C25.8009 163.677 25.5444 162.854 25.2491 162.131L25.1277 162.036L25.0062 161.942C23.5992 160.978 22.8876 160.49 22.8714 160.477L22.3613 160.081C21.8232 159.403 21.8122 158.732 22.3283 158.068C22.9451 157.274 23.6691 157.162 24.5003 157.73C25.193 158.242 25.7463 158.633 26.1601 158.903C26.2573 158.979 26.4804 159.126 26.8294 159.345C27.9377 160.025 28.7437 160.392 29.2474 160.446C30.5121 160.623 31.1606 160.725 31.193 160.75C32.0189 161.392 32.1108 162.126 31.4689 162.952C31.1416 163.373 30.379 163.585 29.181 163.589C29.1234 163.596 29.082 163.616 29.0569 163.649L29.038 163.673C29.3354 165.696 29.1884 167.089 28.5968 167.85C27.3255 169.485 25.4314 169.65 22.9143 168.343C21.3563 167.573 19.9943 166.735 18.8284 165.829Z" fill="black"/>
<path d="M23.7189 151.2C23.1926 151.802 22.5433 151.766 21.7711 151.091C20.9989 150.416 20.876 149.777 21.4024 149.175L25.6538 144.31C26.1667 143.723 26.8092 143.767 27.5814 144.442C28.3536 145.117 28.4832 145.748 27.9704 146.335L23.7189 151.2ZM23.9584 154.759C23.4911 154.078 23.5206 153.437 24.047 152.835C24.5868 152.217 25.2254 152.094 25.9627 152.466C26.8526 153.162 27.8766 153.907 29.0347 154.701C30.6349 155.8 31.9589 156.467 33.0067 156.701C33.0943 154.762 32.1497 152.929 30.1729 151.201L30.0339 151.08C29.9277 151.014 29.7608 150.909 29.533 150.765C29.3033 150.591 29.0582 150.404 28.7976 150.204C28.7686 150.206 28.6847 150.146 28.5457 150.024C27.7735 149.35 27.7383 148.611 28.4401 147.808C29.0205 147.144 29.688 147.019 30.4426 147.433L39.2466 152.226L39.4551 152.408C40.2582 153.11 40.3223 153.847 39.6475 154.619C39.0671 155.283 38.4517 155.427 37.8013 155.049L35.6531 153.907L35.5924 153.976C36.3559 156.251 36.2788 157.913 35.361 158.963C34.6592 159.766 33.5866 160.027 32.1432 159.747C31.2864 159.543 30.4276 159.201 29.5668 158.721C27.4205 157.499 25.7451 156.361 24.5405 155.309C24.2625 155.066 24.0685 154.883 23.9584 154.759Z" fill="black"/>
<path d="M38.9131 144.18L38.8881 143.854L38.0198 139.686C37.8983 139.136 38.017 138.678 38.3759 138.312C39.1369 137.535 39.8176 137.442 40.4181 138.03L46.3281 143.824C46.4881 143.865 46.6413 143.958 46.7878 144.102C47.5054 144.805 47.5269 145.501 46.8521 146.19C46.0768 146.981 45.2937 146.988 44.5028 146.213L41.8663 143.629C41.8653 144.978 41.5704 145.952 40.9818 146.553C40.2926 147.256 39.2719 147.433 37.9196 147.084L37.8765 147.128C38.272 147.515 39.1871 148.384 40.6219 149.733L40.7098 149.819C41.4421 150.537 41.4565 151.254 40.753 151.972C40.0926 152.646 39.3454 152.617 38.5114 151.886C37.6917 151.14 37.1135 150.602 36.7766 150.271C36.6597 150.186 36.096 149.647 35.0853 148.657C34.3823 147.967 33.8475 147.429 33.4811 147.041C32.9365 146.249 33.0088 145.501 33.698 144.798C34.2292 144.256 35.3149 144.042 36.9549 144.156C37.9996 144.204 38.6524 144.212 38.9131 144.18Z" fill="black"/>
<path d="M44.3019 141.161C41.1257 137.646 40.9682 134.595 43.8293 132.01C46.2186 129.852 48.3689 129.83 50.2801 131.945L52.1157 133.977C52.8444 134.784 53.6782 135.095 54.6169 134.91C55.8758 134.712 56.6633 134.789 56.9796 135.139C57.6808 135.915 57.6358 136.66 56.8444 137.375C56.1139 138.035 54.8199 138.209 52.9625 137.897L52.8756 137.893C52.8434 139.387 52.3631 140.553 51.4348 141.392C48.8932 143.688 46.5156 143.611 44.3019 141.161ZM46.5663 139.032C47.4463 140.006 48.3124 140.108 49.1646 139.338C49.8647 138.706 49.8133 137.716 49.0103 136.368C48.501 135.529 47.9508 134.782 47.3595 134.128C47.1945 133.945 47.0136 133.791 46.8167 133.665C46.395 133.963 46.07 134.215 45.8417 134.421C44.5785 135.563 44.8201 137.1 46.5663 139.032Z" fill="black"/>
<path d="M54.6205 132.684C54.0313 131.947 53.4709 130.951 52.9395 129.695C51.9888 127.225 52.6107 125.113 54.8052 123.358C56.0547 122.359 57.0509 122.324 57.7938 123.253C58.4342 124.054 58.338 124.787 57.505 125.453L57.1926 125.703C57.0709 125.748 57.002 125.777 56.986 125.79L56.8418 125.905C55.6084 126.891 55.3823 127.873 56.1637 128.85L56.1877 128.831L58.6051 126.189L58.9655 125.901C59.8786 125.171 60.6425 125.19 61.2573 125.959C61.8209 126.664 61.8176 127.349 61.2472 128.015L58.5751 130.979L58.5943 131.003C59.0683 131.596 59.954 131.373 61.2515 130.336C61.4277 130.195 61.535 130.083 61.5735 130C61.7467 128.837 61.9615 128.153 62.2178 127.948C63.0508 127.282 63.8067 127.374 64.4856 128.223C65.6127 129.632 65.0951 131.202 62.9325 132.931C62.1957 133.52 61.1161 133.911 59.6939 134.102C57.3107 134.406 55.6195 133.933 54.6205 132.684Z" fill="black"/>
<path d="M66.0879 120.892L66.1194 120.566L65.9826 116.31C65.9577 115.748 66.1535 115.317 66.5702 115.018C67.4536 114.385 68.1403 114.41 68.6303 115.093L73.4534 121.818C73.6037 121.887 73.7387 122.005 73.8582 122.171C74.4439 122.988 74.3451 123.677 73.5617 124.239C72.6617 124.885 71.889 124.757 71.2435 123.857L69.092 120.857C68.8584 122.186 68.4 123.095 67.7167 123.585C66.9167 124.159 65.8807 124.157 64.6088 123.58L64.5588 123.616C64.8815 124.066 65.6333 125.079 66.8141 126.655L66.8858 126.755C67.4835 127.589 67.374 128.298 66.5573 128.884C65.7906 129.434 65.0595 129.277 64.3641 128.412C63.6853 127.536 63.2084 126.907 62.9335 126.523C62.8332 126.418 62.3706 125.791 61.5458 124.641C60.9721 123.841 60.5382 123.218 60.2441 122.773C59.8442 121.899 60.0443 121.175 60.8443 120.601C61.461 120.159 62.5673 120.135 64.1631 120.53C65.184 120.757 65.8256 120.878 66.0879 120.892Z" fill="black"/>
<path d="M75.7833 113.737C75.3915 112.724 75.7086 111.897 76.7345 111.255C77.6561 110.679 78.8952 110.436 80.4518 110.526C82.7586 110.656 84.4177 111.529 85.4293 113.146C86.5388 114.92 86.3906 116.694 84.9847 118.469C84.2763 119.347 83.4961 120.053 82.6441 120.586C79.5317 122.533 76.9638 121.889 74.9406 118.655C74.5055 117.96 74.1117 117.117 73.7591 116.128C73.3673 115.115 73.554 114.37 74.3191 113.891C74.719 113.641 75.2071 113.59 75.7833 113.737ZM77.6271 116.975C78.5625 118.47 79.5519 118.891 80.5952 118.239C80.943 118.021 81.6091 117.423 82.5935 116.444C83.1977 115.825 83.3746 115.315 83.1245 114.915C82.809 114.411 82.211 114.035 81.3304 113.787C79.9976 113.435 79.1225 113.39 78.7052 113.651C78.653 113.684 78.565 113.775 78.4411 113.925C78.2194 114.112 78.0738 114.228 78.0043 114.271C77.5696 114.543 77.0956 114.598 76.5825 114.435C76.5284 114.928 76.8765 115.775 77.6271 116.975Z" fill="black"/>
<path d="M90.4277 111.167L87.4272 102.808C87.1699 102.044 87.4472 101.465 88.2589 101.07C88.757 100.828 89.2111 100.824 89.6212 101.058L97.2072 105.479L97.3306 105.522C98.3358 105.056 99.3112 104.788 100.257 104.716C102.441 104.613 103.919 105.354 104.689 106.941L104.972 107.522C105.11 108.276 104.782 108.845 103.989 109.23C103.233 109.598 102.602 109.426 102.096 108.714C101.708 108.195 101.427 107.899 101.253 107.823C100.76 107.653 99.9966 107.818 98.9635 108.32C96.0487 109.736 94.1428 111.164 93.2457 112.603C93.619 113.653 93.3906 114.379 92.5604 114.783C91.5826 115.258 90.8652 115.025 90.4081 114.084C90.0676 113.383 90.0741 112.411 90.4277 111.167ZM92.026 106.149L92.786 108.277L92.8959 108.292C93.1057 108.395 93.4992 108.079 94.0763 107.342L92.026 106.149Z" fill="black"/>
<path d="M104.229 96.3823C104.021 95.3164 104.478 94.5574 105.6 94.1054C106.609 93.6994 107.871 93.6775 109.388 94.0397C111.636 94.5716 113.117 95.7222 113.829 97.4916C114.61 99.4322 114.154 101.153 112.458 102.654C111.607 103.394 110.715 103.952 109.783 104.328C106.377 105.699 103.962 104.615 102.537 101.077C102.231 100.315 101.99 99.4172 101.817 98.3817C101.609 97.3157 101.923 96.6142 102.76 96.2771C103.198 96.1009 103.687 96.136 104.229 96.3823ZM105.476 99.893C106.135 101.529 107.035 102.117 108.177 101.658C108.558 101.505 109.318 101.033 110.459 100.242C111.162 99.7372 111.426 99.2662 111.25 98.8286C111.028 98.2769 110.505 97.802 109.681 97.4039C108.431 96.8241 107.577 96.6261 107.12 96.8099C107.063 96.8329 106.961 96.9074 106.813 97.0334C106.561 97.1787 106.398 97.2667 106.322 97.2973C105.846 97.4889 105.37 97.4595 104.893 97.2092C104.754 97.6856 104.948 98.5802 105.476 99.893Z" fill="black"/>
<path d="M122.44 93.4484C122.139 92.4466 122.001 91.5243 122.027 90.6815C122.156 88.5441 122.957 87.2541 124.43 86.8116C125 86.6405 125.706 86.5676 126.549 86.5928C128.116 86.6787 129.027 87.144 129.281 87.9886C129.587 89.0101 129.24 89.6713 128.238 89.9722C128.061 90.0253 127.818 90.0342 127.507 89.9989C126.409 89.8363 125.791 89.7756 125.654 89.8169L125.389 89.8965C125.061 90.2306 125 90.7414 125.206 91.4289L126.021 94.1397C126.404 95.4165 127.588 95.7569 129.572 95.161C130.161 94.984 130.51 94.8257 130.618 94.6862C131.185 93.9375 131.557 93.5366 131.734 93.4835C132.756 93.1767 133.423 93.5439 133.735 94.5849C134.213 96.176 133.126 97.3698 130.475 98.1664C126.428 99.3818 123.75 97.8092 122.44 93.4484Z" fill="black"/>
<path d="M133.557 86.3576C133.506 85.2727 134.068 84.5881 135.245 84.3036C136.301 84.0481 137.554 84.2094 139.002 84.7877C141.149 85.6399 142.447 86.993 142.895 88.847C143.387 90.8804 142.686 92.5166 140.791 93.7556C139.841 94.3652 138.878 94.7881 137.901 95.0243C134.332 95.8874 132.1 94.4649 131.203 90.7569C131.01 89.9595 130.903 89.0359 130.881 87.9861C130.83 86.9012 131.243 86.2527 132.12 86.0406C132.578 85.9297 133.057 86.0354 133.557 86.3576ZM134.283 90.012C134.698 91.7264 135.503 92.439 136.699 92.1497C137.098 92.0533 137.919 91.6965 139.162 91.0792C139.931 90.6822 140.261 90.2544 140.15 89.7959C140.01 89.2178 139.561 88.6721 138.804 88.1589C137.651 87.4039 136.835 87.0842 136.357 87.1999C136.297 87.2144 136.184 87.2732 136.019 87.3764C135.75 87.4838 135.575 87.5471 135.496 87.5664C134.997 87.6869 134.53 87.5888 134.095 87.2721C133.888 87.7232 133.95 88.6365 134.283 90.012Z" fill="black"/>
<path d="M144.217 82.5491C144.067 81.7217 144.368 81.1358 145.118 80.7914L145.875 80.6544C146.985 80.4534 148.133 80.4019 149.318 80.5C152.377 80.8214 154.088 81.9811 154.45 83.9791C154.779 85.7955 153.991 87.3762 152.088 88.7214C151.591 89.0824 150.755 89.4735 149.58 89.8946C149.575 89.9789 149.587 90.1019 149.616 90.2633C149.653 90.4651 149.683 90.5743 149.707 90.5908C149.725 90.6917 149.747 90.8128 149.772 90.9541C149.818 91.0917 149.85 91.211 149.868 91.3119C149.903 91.389 149.926 91.4578 149.937 91.5183L149.992 91.8211C150.182 92.8705 149.762 93.4884 148.733 93.6748C147.784 93.8466 147.184 93.4655 146.931 92.5315L144.302 82.8464C144.278 82.8298 144.25 82.7308 144.217 82.5491ZM148.702 86.7707L148.779 86.8506C148.926 86.9699 149.497 86.7309 150.494 86.1336C151.173 85.7397 151.452 85.2097 151.332 84.5437C151.237 84.019 150.647 83.6985 149.563 83.5821C148.972 83.5432 148.407 83.5308 147.868 83.5451L147.95 83.9992C148.261 85.7147 148.511 86.6385 148.702 86.7707Z" fill="black"/>
<path d="M155.862 80.1275L157.724 79.8944L165.516 77.989L165.76 77.9584C166.818 77.826 167.414 78.2889 167.546 79.3472C167.658 80.2426 167.213 80.8151 166.211 81.0646C165.85 81.1511 165.29 81.3038 164.532 81.5227C163.771 81.7213 163.181 81.8778 162.762 81.9924L162.437 82.126L162.556 83.0723C162.928 86.0436 163.447 88.459 164.114 90.3186C164.142 90.3771 164.163 90.4674 164.179 90.5895C164.314 91.6681 163.872 92.2711 162.855 92.3984C161.898 92.5182 161.206 91.8607 160.779 90.4259C160.486 89.4084 160.289 88.658 160.187 88.1746L159.301 82.8286L159.117 82.8515L158.904 82.8783C157.728 83.0667 157.08 83.1686 156.958 83.1839C156.92 83.2093 156.789 83.2361 156.565 83.2641C155.486 83.3991 154.878 82.9171 154.74 81.8181C154.613 80.8006 154.987 80.237 155.862 80.1275Z" fill="black"/>
<path d="M174.4 78.6363C174.328 77.49 174.824 76.8836 175.889 76.817C176.912 76.7531 177.535 77.5054 177.756 79.0739C177.957 80.6437 178.078 81.7664 178.121 82.4419C178.205 83.7929 178.018 85.0684 177.558 86.2685C176.498 89.0268 174.616 90.4905 171.914 90.6593C170.051 90.7757 169.084 90.2505 169.011 89.0837C168.949 88.1012 169.441 87.5773 170.485 87.512L170.945 87.4832C171.316 87.5011 171.532 87.5082 171.594 87.5043L171.778 87.4928C173.825 87.3649 174.797 86.4719 174.693 84.8138C174.671 84.7946 174.63 84.787 174.568 84.7908C173.439 85.1285 172.731 85.3064 172.444 85.3243C170.54 85.4433 169.146 84.3385 168.26 82.01C167.74 80.5835 167.468 79.686 167.445 79.3175C167.38 78.2736 167.869 77.719 168.913 77.6537C169.691 77.6051 170.345 78.3759 170.876 79.9662C171.361 81.4772 171.89 82.2147 172.463 82.1789C173.957 82.0855 174.671 81.4964 174.603 80.4115L174.58 80.043C174.536 79.6758 174.488 79.4014 174.436 79.2197L174.4 78.6363Z" fill="black"/>
<path d="M180.453 77.6968C180.448 77.02 181.365 76.1928 183.204 75.2153C183.816 74.8826 184.502 74.7134 185.261 74.7078C186.471 74.6989 187.395 74.7844 188.032 74.9643C189.553 75.3838 190.318 76.2704 190.328 77.624L190.344 79.716C190.347 80.2287 190.035 80.9181 189.405 81.7842C190.458 82.6994 190.988 83.639 190.995 84.603C191.015 87.3718 189.817 88.9599 187.4 89.3674L186.077 89.3772C184.949 89.3855 184.077 89.3099 183.46 89.1504C181.59 88.6309 180.649 87.643 180.639 86.1869L180.581 78.3112C180.497 78.1477 180.455 77.9429 180.453 77.6968ZM183.874 78.5023L183.891 80.8096C184.054 80.7264 184.505 80.5897 185.242 80.3997C186.531 80.062 187.175 79.7188 187.172 79.3702L187.162 78.0165C187.162 77.955 186.731 77.9274 185.869 77.9338C185.459 77.9368 185.162 77.9492 184.978 77.9711C184.24 78.1201 183.872 78.2972 183.874 78.5023ZM187.797 84.8111C187.792 84.0933 187.256 83.7178 186.189 83.6847C184.896 83.6327 184.137 83.5357 183.91 83.3938L183.929 86.0088C183.93 86.1523 184.085 86.223 184.392 86.2207L186.915 86.2021C187.51 86.1977 187.804 85.7341 187.797 84.8111Z" fill="black"/>
<path d="M191.164 83.8841C191.409 79.1526 193.456 76.8864 197.307 77.0854C200.523 77.2517 202.057 78.7584 201.91 81.6055L201.769 84.3399C201.713 85.4255 202.081 86.2352 202.875 86.7692C203.904 87.5207 204.407 88.132 204.382 88.6031C204.328 89.6477 203.769 90.1425 202.704 90.0874C201.721 90.0366 200.683 89.2436 199.592 87.7085L199.534 87.6439C198.454 88.6765 197.289 89.1605 196.039 89.0959C192.619 88.9191 190.994 87.1818 191.164 83.8841ZM194.27 83.9831C194.203 85.294 194.742 85.9791 195.889 86.0384C196.831 86.0871 197.496 85.3513 197.883 83.8309C198.117 82.8778 198.256 81.9608 198.302 81.0801C198.315 80.8343 198.296 80.5971 198.246 80.3686C197.737 80.2807 197.329 80.2288 197.022 80.2129C195.322 80.125 194.405 81.3818 194.27 83.9831Z" fill="black"/>
<path d="M213.185 80.663C213.352 79.2164 213.975 78.5553 215.055 78.6798C215.829 78.7691 216.296 79.1945 216.456 79.9562C216.298 80.9703 216.235 81.6959 216.267 82.1332L216.604 90.224C216.622 90.2467 216.623 90.3294 216.607 90.472C216.487 91.5111 215.877 91.9673 214.777 91.8405C213.901 91.7394 213.438 91.0977 213.388 89.9152C213.351 89.1676 213.32 88.266 213.297 87.2104L213.257 87.02L212.157 86.8931L210.446 86.6958C209.588 86.6176 209.053 86.5972 208.842 86.6349L208.56 86.6643L208.261 89.2621C208.172 90.0364 207.607 90.3636 206.568 90.2438C205.753 90.1499 205.288 89.704 205.174 88.9063C205.263 88.132 205.336 87.4075 205.394 86.7328C205.473 86.04 205.531 85.5408 205.566 85.2352L205.588 84.7733L205.682 84.2267C205.725 83.8599 205.793 83.269 205.887 82.454C206.003 81.621 206.118 80.7155 206.231 79.7375C206.463 78.9796 207.017 78.6512 207.893 78.7522C208.932 78.872 209.407 79.3191 209.318 80.0933L208.941 83.3635C209.715 83.4528 211.083 83.5898 213.043 83.7745L213.064 83.5911L213.089 83.3772C213.102 83.0896 213.109 82.7601 213.11 82.3886C213.132 82.0195 213.137 81.7104 213.124 81.4612C213.132 81.2143 213.145 81.0094 213.164 80.8464L213.185 80.663Z" fill="black"/>
<path d="M225.946 82.6893C226.204 81.2562 226.868 80.6361 227.938 80.8289C228.705 80.9672 229.144 81.4215 229.255 82.1918C229.033 83.1938 228.924 83.914 228.928 84.3524L228.751 92.4482C228.767 92.472 228.763 92.5546 228.737 92.6959C228.552 93.7253 227.914 94.1418 226.824 93.9453C225.956 93.7888 225.535 93.1189 225.561 91.9357C225.57 91.1872 225.598 90.2855 225.642 89.2306L225.614 89.038L224.524 88.8415L222.829 88.5359C221.977 88.4032 221.445 88.349 221.232 88.3732L220.949 88.3846L220.485 90.9581C220.347 91.7252 219.763 92.0159 218.733 91.8303C217.926 91.6847 217.491 91.2103 217.427 90.4069C217.565 89.6398 217.684 88.9215 217.784 88.2517C217.908 87.5654 217.997 87.0709 218.052 86.7682L218.103 86.3085L218.232 85.769C218.297 85.4057 218.403 84.8203 218.548 84.0129C218.718 83.189 218.89 82.2926 219.064 81.3237C219.344 80.5822 219.918 80.2896 220.786 80.4461C221.815 80.6317 222.261 81.108 222.122 81.875L221.538 85.1147C222.305 85.2529 223.661 85.4765 225.606 85.7855L225.639 85.6038L225.677 85.3919C225.708 85.1057 225.736 84.7773 225.761 84.4067C225.807 84.0397 225.831 83.7315 225.834 83.482C225.858 83.2361 225.884 83.0324 225.913 82.871L225.946 82.6893Z" fill="black"/>
<path d="M230.455 85.7798C230.826 84.2026 232.064 83.2825 234.17 83.0194C235.373 82.9231 236.183 82.9242 236.603 83.0229C238.24 83.4081 238.912 84.6723 238.618 86.8156L238.266 88.313C237.904 89.8503 237.34 92.0247 236.573 94.8362C236.164 95.4986 235.581 95.7405 234.822 95.562C233.784 95.3177 233.361 94.7863 233.553 93.9678L233.927 92.3805L229.53 93.3371C229.416 93.3736 229.249 93.3659 229.03 93.3143C228.031 93.0794 227.654 92.4429 227.899 91.4047C228.049 90.7658 228.38 90.3906 228.89 90.279L231.471 89.6536L231.485 89.5937C230.535 88.1692 230.192 86.8979 230.455 85.7798ZM233.531 86.4087C233.427 86.8479 233.829 87.5115 234.737 88.3993C234.768 88.4486 234.793 88.4756 234.813 88.4803C234.913 88.5038 234.986 88.4157 235.033 88.2161L235.533 86.0898C234.24 86.1227 233.573 86.229 233.531 86.4087Z" fill="black"/>
<path d="M240.925 87.1821C241.198 86.1934 241.726 85.6687 242.508 85.6078C242.613 85.6153 242.754 85.6435 242.932 85.6926C244.118 86.0196 244.564 86.7169 244.27 87.7847C243.916 89.0699 243.145 89.549 241.959 89.222C240.97 88.9496 240.626 88.2696 240.925 87.1821ZM239.3 92.7335C239.627 91.5471 240.373 91.1147 241.54 91.4362C242.608 91.7305 243 92.3917 242.717 93.4199C242.368 94.6854 241.62 95.1601 240.473 94.844C239.386 94.5443 238.995 93.8408 239.3 92.7335Z" fill="black"/>
</svg>
