<svg width="558" height="80" viewBox="0 0 558 80" fill="none" xmlns="http://www.w3.org/2000/svg">
<path d="M0.709504 74.048L0.709504 61.988C1.7895 61.988 2.5815 61.676 3.0855 61.052C3.5895 60.428 3.9375 59.684 4.1295 58.82C4.3695 57.86 4.5375 56.9 4.6335 55.94C4.7535 54.98 4.8375 54.056 4.8855 53.168C4.9335 52.256 4.9695 51.392 4.9935 50.576C5.0415 49.088 5.0775 47.696 5.1015 46.4C5.1255 45.08 5.1375 43.784 5.1375 42.512H24.2895V61.988H27.3495V74.048H20.8335V68H7.2255V74.048H0.709504ZM9.8535 61.988H17.7735V48.56H11.0415L10.9335 55.328C10.9335 55.76 10.9095 56.264 10.8615 56.84C10.8375 57.416 10.7775 58.016 10.6815 58.64C10.6095 59.24 10.5015 59.84 10.3575 60.44C10.2375 61.016 10.0695 61.532 9.8535 61.988ZM29.2901 77.036V70.412C30.2021 70.412 30.9701 70.376 31.5941 70.304C32.2181 70.232 32.7341 70.088 33.1421 69.872C33.5741 69.68 33.9581 69.368 34.2941 68.936L26.5901 49.028H33.9341L38.0021 61.88L40.9901 49.028H47.8301L43.0061 66.272C42.7181 67.352 42.3821 68.372 41.9981 69.332C41.6141 70.292 41.1821 71.168 40.7021 71.96C40.2221 72.776 39.6581 73.496 39.0101 74.12C38.3621 74.768 37.6181 75.308 36.7781 75.74C36.1061 76.1 35.4221 76.364 34.7261 76.532C34.0541 76.724 33.2861 76.856 32.4221 76.928C31.5581 77 30.5141 77.036 29.2901 77.036ZM46.7136 68.036V62.132C47.3136 62.132 47.7936 61.976 48.1536 61.664C48.5376 61.328 48.8496 60.92 49.0896 60.44C49.3536 59.864 49.5216 59.24 49.5936 58.568C49.6656 57.896 49.7136 57.284 49.7376 56.732C49.7856 55.772 49.8216 54.752 49.8456 53.672C49.8696 52.592 49.8816 51.62 49.8816 50.756C49.9056 49.868 49.9176 49.292 49.9176 49.028H65.7936V68H59.4576V54.716H55.6056C55.6056 55.46 55.5936 56.324 55.5696 57.308C55.5456 58.292 55.4856 59.288 55.3896 60.296C55.3176 61.28 55.1856 62.192 54.9936 63.032C54.7776 63.944 54.5016 64.712 54.1656 65.336C53.8296 65.936 53.3856 66.44 52.8336 66.848C52.2096 67.28 51.4056 67.592 50.4216 67.784C49.4376 67.952 48.2016 68.036 46.7136 68.036ZM69.2122 77.036V70.412C70.1242 70.412 70.8922 70.376 71.5162 70.304C72.1402 70.232 72.6562 70.088 73.0642 69.872C73.4962 69.68 73.8802 69.368 74.2162 68.936L66.5122 49.028H73.8562L77.9242 61.88L80.9122 49.028H87.7522L82.9282 66.272C82.6402 67.352 82.3042 68.372 81.9202 69.332C81.5362 70.292 81.1042 71.168 80.6242 71.96C80.1442 72.776 79.5802 73.496 78.9322 74.12C78.2842 74.768 77.5402 75.308 76.7002 75.74C76.0282 76.1 75.3442 76.364 74.6482 76.532C73.9762 76.724 73.2082 76.856 72.3442 76.928C71.4802 77 70.4362 77.036 69.2122 77.036ZM98.3716 68V62.24C97.4116 62.312 96.7396 62.348 96.3556 62.348C95.9956 62.348 95.6476 62.348 95.3116 62.348C93.4636 62.348 91.9396 62.06 90.7396 61.484C89.5636 60.884 88.6876 59.984 88.1116 58.784C87.5356 57.56 87.2476 56.024 87.2476 54.176V49.028H93.6196V53.996C93.6196 54.452 93.6556 54.872 93.7276 55.256C93.8236 55.64 94.0636 55.952 94.4476 56.192C94.8316 56.432 95.4556 56.552 96.3196 56.552C96.5596 56.552 96.8596 56.54 97.2196 56.516C97.5796 56.492 97.9636 56.468 98.3716 56.444V49.028H104.744V68H98.3716ZM112.686 68.288C111.894 68.288 111.126 68.168 110.382 67.928C109.638 67.688 108.966 67.328 108.366 66.848C107.766 66.368 107.286 65.768 106.926 65.048C106.59 64.328 106.422 63.476 106.422 62.492C106.422 61.052 106.722 59.924 107.322 59.108C107.946 58.292 108.774 57.692 109.806 57.308C110.862 56.924 112.05 56.684 113.37 56.588C114.714 56.468 116.106 56.408 117.546 56.408H118.41C118.41 55.952 118.302 55.544 118.086 55.184C117.87 54.824 117.558 54.536 117.15 54.32C116.766 54.104 116.286 53.996 115.71 53.996C115.302 53.996 114.906 54.056 114.522 54.176C114.138 54.296 113.814 54.464 113.55 54.68C113.31 54.872 113.166 55.112 113.118 55.4H106.782C106.926 54.224 107.274 53.216 107.826 52.376C108.378 51.512 109.074 50.816 109.914 50.288C110.754 49.736 111.69 49.328 112.722 49.064C113.778 48.8 114.87 48.668 115.998 48.668C117.87 48.668 119.43 49.016 120.678 49.712C121.926 50.384 122.862 51.404 123.486 52.772C124.134 54.116 124.458 55.796 124.458 57.812V68H118.59V65.876C118.038 66.476 117.462 66.956 116.862 67.316C116.262 67.676 115.614 67.928 114.918 68.072C114.246 68.216 113.502 68.288 112.686 68.288ZM114.774 63.428C115.422 63.428 116.022 63.272 116.574 62.96C117.15 62.648 117.606 62.264 117.942 61.808C118.302 61.328 118.482 60.848 118.482 60.368V60.332H114.954C114.594 60.332 114.27 60.368 113.982 60.44C113.718 60.488 113.49 60.572 113.298 60.692C113.106 60.812 112.962 60.968 112.866 61.16C112.77 61.328 112.722 61.544 112.722 61.808C112.722 62.144 112.806 62.444 112.974 62.708C113.142 62.948 113.382 63.128 113.694 63.248C114.006 63.368 114.366 63.428 114.774 63.428ZM126.732 68V49.028H133.104V58.064C133.248 57.896 133.38 57.728 133.5 57.56C133.644 57.392 133.788 57.224 133.932 57.056L140.484 49.028H145.74V68H139.368V59.324C139.2 59.54 139.02 59.756 138.828 59.972C138.66 60.188 138.48 60.404 138.288 60.62L132.276 68H126.732ZM136.596 48.128C134.34 48.128 132.564 47.564 131.268 46.436C129.972 45.308 129.324 43.568 129.324 41.216H134.436C134.436 42.2 134.64 42.872 135.048 43.232C135.48 43.592 136.008 43.772 136.632 43.772C137.304 43.772 137.832 43.592 138.216 43.232C138.624 42.872 138.828 42.2 138.828 41.216H143.94C143.94 42.752 143.64 44.036 143.04 45.068C142.464 46.1 141.624 46.868 140.52 47.372C139.44 47.876 138.132 48.128 136.596 48.128ZM152.583 68V54.716H146.643V49.028H164.931V54.716H158.919V68H152.583ZM174.809 68.288C172.865 68.288 171.161 67.904 169.697 67.136C168.257 66.344 167.129 65.228 166.313 63.788C165.521 62.348 165.125 60.632 165.125 58.64C165.125 56.648 165.533 54.908 166.349 53.42C167.165 51.908 168.305 50.732 169.769 49.892C171.233 49.052 172.937 48.632 174.881 48.632C176.273 48.632 177.521 48.848 178.625 49.28C179.729 49.712 180.677 50.336 181.469 51.152C182.261 51.968 182.861 52.952 183.269 54.104C183.701 55.256 183.917 56.552 183.917 57.992C183.917 58.4 183.893 58.796 183.845 59.18C183.821 59.54 183.761 59.924 183.665 60.332H171.425C171.473 60.788 171.617 61.22 171.857 61.628C172.121 62.036 172.481 62.36 172.937 62.6C173.393 62.84 173.969 62.96 174.665 62.96C175.241 62.96 175.733 62.9 176.141 62.78C176.573 62.636 176.921 62.456 177.185 62.24C177.449 62.024 177.617 61.808 177.689 61.592H183.917C183.581 63.152 182.957 64.436 182.045 65.444C181.157 66.428 180.077 67.148 178.805 67.604C177.557 68.06 176.225 68.288 174.809 68.288ZM171.533 56.192H177.941C177.941 55.832 177.833 55.46 177.617 55.076C177.425 54.668 177.089 54.332 176.609 54.068C176.153 53.804 175.541 53.672 174.773 53.672C174.029 53.672 173.417 53.804 172.937 54.068C172.457 54.332 172.097 54.668 171.857 55.076C171.641 55.46 171.533 55.832 171.533 56.192ZM194.256 68.288C192.336 68.288 190.668 67.904 189.252 67.136C187.836 66.368 186.732 65.264 185.94 63.824C185.172 62.36 184.788 60.608 184.788 58.568C184.788 56.456 185.184 54.668 185.976 53.204C186.792 51.716 187.92 50.588 189.36 49.82C190.8 49.028 192.468 48.632 194.364 48.632C196.068 48.632 197.58 48.944 198.9 49.568C200.22 50.192 201.264 51.092 202.032 52.268C202.8 53.444 203.208 54.884 203.256 56.588H197.136C196.992 55.892 196.668 55.364 196.164 55.004C195.684 54.644 195.084 54.464 194.364 54.464C193.476 54.464 192.792 54.692 192.312 55.148C191.856 55.58 191.532 56.12 191.34 56.768C191.172 57.392 191.088 57.98 191.088 58.532C191.088 59.18 191.196 59.816 191.412 60.44C191.628 61.04 191.976 61.532 192.456 61.916C192.936 62.3 193.572 62.492 194.364 62.492C195.132 62.492 195.756 62.312 196.236 61.952C196.716 61.568 197.016 61.052 197.136 60.404H203.472C203.424 62.132 202.98 63.584 202.14 64.76C201.3 65.912 200.196 66.788 198.828 67.388C197.46 67.988 195.936 68.288 194.256 68.288ZM204.889 68V49.028H211.261V54.356H214.897C215.977 54.356 216.985 54.464 217.921 54.68C218.881 54.896 219.709 55.256 220.405 55.76C221.125 56.24 221.677 56.9 222.061 57.74C222.469 58.58 222.673 59.624 222.673 60.872C222.673 62.192 222.421 63.308 221.917 64.22C221.437 65.132 220.777 65.864 219.937 66.416C219.121 66.968 218.185 67.376 217.129 67.64C216.097 67.88 215.041 68 213.961 68H204.889ZM211.261 62.42H214.249C214.609 62.42 214.921 62.396 215.185 62.348C215.473 62.276 215.701 62.18 215.869 62.06C216.061 61.94 216.193 61.796 216.265 61.628C216.361 61.436 216.409 61.22 216.409 60.98C216.409 60.764 216.361 60.572 216.265 60.404C216.193 60.236 216.073 60.104 215.905 60.008C215.737 59.888 215.521 59.804 215.257 59.756C215.017 59.684 214.729 59.648 214.393 59.648H211.261V62.42ZM232.157 73.004V62.276C232.661 62.276 233.105 62.156 233.489 61.916C233.873 61.676 234.197 61.34 234.461 60.908C234.725 60.476 234.941 59.984 235.109 59.432C235.301 58.856 235.445 58.232 235.541 57.56C235.709 56.504 235.805 55.388 235.829 54.212C235.877 53.012 235.901 51.86 235.901 50.756C235.901 50.468 235.901 50.18 235.901 49.892C235.901 49.604 235.901 49.316 235.901 49.028H252.389V62.276H254.729V73.004H248.393V68H238.529V73.004H232.157ZM240.473 62.276H246.017V54.716H241.445C241.445 55.388 241.433 56.072 241.409 56.768C241.385 57.44 241.337 58.112 241.265 58.784C241.217 59.192 241.157 59.6 241.085 60.008C241.013 60.416 240.929 60.812 240.833 61.196C240.737 61.556 240.617 61.916 240.473 62.276ZM264.865 68.288C262.993 68.288 261.301 67.916 259.789 67.172C258.301 66.428 257.113 65.336 256.225 63.896C255.337 62.432 254.893 60.656 254.893 58.568C254.893 56.432 255.337 54.632 256.225 53.168C257.137 51.68 258.337 50.552 259.825 49.784C261.313 49.016 262.957 48.632 264.757 48.632C266.605 48.632 268.261 49.028 269.725 49.82C271.213 50.612 272.389 51.752 273.253 53.24C274.141 54.728 274.585 56.54 274.585 58.676C274.585 60.74 274.165 62.492 273.325 63.932C272.485 65.372 271.333 66.464 269.869 67.208C268.405 67.928 266.737 68.288 264.865 68.288ZM264.757 62.384C265.693 62.384 266.413 62.192 266.917 61.808C267.445 61.424 267.817 60.944 268.033 60.368C268.249 59.792 268.357 59.216 268.357 58.64C268.357 58.064 268.249 57.464 268.033 56.84C267.817 56.192 267.445 55.652 266.917 55.22C266.413 54.788 265.693 54.572 264.757 54.572C263.845 54.572 263.113 54.788 262.561 55.22C262.033 55.652 261.661 56.18 261.445 56.804C261.229 57.428 261.121 58.04 261.121 58.64C261.121 59.24 261.229 59.828 261.445 60.404C261.661 60.98 262.033 61.46 262.561 61.844C263.113 62.204 263.845 62.384 264.757 62.384Z" fill="white"/>
<path d="M40.0255 35.288C38.6335 35.288 37.3375 35.084 36.1375 34.676C34.9615 34.244 33.9295 33.608 33.0415 32.768C32.1535 31.928 31.4455 30.896 30.9175 29.672C30.4135 28.448 30.1615 27.032 30.1615 25.424C30.1615 23.888 30.4255 22.508 30.9535 21.284C31.4815 20.06 32.1895 19.028 33.0775 18.188C33.9655 17.348 34.9975 16.712 36.1735 16.28C37.3735 15.848 38.6575 15.632 40.0255 15.632C41.4175 15.632 42.7015 15.86 43.8775 16.316C45.0775 16.748 46.1095 17.384 46.9735 18.224C47.8615 19.064 48.5575 20.096 49.0615 21.32C49.5895 22.544 49.8535 23.912 49.8535 25.424C49.8535 27.032 49.6015 28.46 49.0975 29.708C48.6175 30.932 47.9335 31.964 47.0455 32.804C46.1815 33.62 45.1495 34.244 43.9495 34.676C42.7735 35.084 41.4655 35.288 40.0255 35.288ZM40.0255 21.572C39.3295 21.572 38.7415 21.704 38.2615 21.968C37.8055 22.232 37.4335 22.556 37.1455 22.94C36.8815 23.3 36.6895 23.708 36.5695 24.164C36.4495 24.62 36.3895 25.052 36.3895 25.46C36.3895 25.964 36.4495 26.456 36.5695 26.936C36.6895 27.392 36.8815 27.8 37.1455 28.16C37.4335 28.52 37.8055 28.82 38.2615 29.06C38.7415 29.276 39.3295 29.384 40.0255 29.384C40.6975 29.384 41.2735 29.276 41.7535 29.06C42.2335 28.82 42.6055 28.52 42.8695 28.16C43.1335 27.776 43.3255 27.356 43.4455 26.9C43.5655 26.42 43.6255 25.94 43.6255 25.46C43.6255 25.076 43.5655 24.656 43.4455 24.2C43.3255 23.744 43.1335 23.324 42.8695 22.94C42.6055 22.556 42.2335 22.232 41.7535 21.968C41.2735 21.704 40.6975 21.572 40.0255 21.572Z" fill="white"/>
<path d="M27 46C29.33 48.66 30.99 51.65 32.9925 54.075C34.9273 56.418 36.49 59.15 38.41 61.6575C40.7982 64.7765 43.16 68.65 45.82 71.4875C48.14 73.97 49.995 75.995 50.745 76.9925C51 77.495 51 77.99 51 78.5" stroke="#E30613" stroke-width="3" stroke-linecap="round"/>
<path d="M379.603 46.1239C384.038 46.1239 387.577 42.3458 387.1 37.8745C386.735 34.4827 383.973 31.7152 380.542 31.3025C378.708 31.0803 376.986 31.5195 375.581 32.4031L375.984 30.4506C376.15 29.6304 375.517 28.8631 374.67 28.8631C372.745 28.8631 370.981 27.7361 370.267 25.9687C370.262 25.9528 370.251 25.9317 370.246 25.9158C369.485 24.0797 367.704 22.7779 365.693 22.7462C362.9 22.7039 360.621 24.9263 360.621 27.6726C360.621 28.3287 360.079 28.8631 359.414 28.8631H354.256L345.628 70.9198H367.677C367.828 70.2001 368.562 69.7768 369.275 69.9779C369.672 70.089 370.085 70.1472 370.514 70.1525C373.217 70.2001 375.528 68.0042 375.587 65.3426C375.646 62.6809 373.394 60.3051 370.595 60.3051C370.337 60.3051 370.085 60.3315 369.833 60.3686L369.871 60.194C370.257 58.3102 371.94 56.9556 373.892 56.9609H373.93C374.364 56.9609 374.777 56.8974 375.174 56.781C375.174 56.8392 375.163 56.8974 375.163 56.9609C375.163 59.6648 377.646 61.7973 380.488 61.2522C382.215 60.9189 383.609 59.5484 383.947 57.8392C384.499 55.0401 382.338 52.5848 379.598 52.5848C379.163 52.5848 378.751 52.6483 378.354 52.7647C378.354 52.7065 378.364 52.6483 378.364 52.5848C378.364 50.1666 376.38 48.2088 373.93 48.2088H373.914C373.099 48.2088 372.482 47.4732 372.648 46.6795L372.938 45.2667C373.126 44.3566 374.214 43.9597 374.954 44.5312C376.236 45.526 377.85 46.1186 379.603 46.1186V46.1239Z" fill="#E30613"/>
<path d="M295.802 70.9253H317.851L326.479 28.8687H304.43L295.802 70.9253Z" fill="#E30613"/>
<path d="M320.709 70.9253H342.759L351.392 28.8687H329.343L320.709 70.9253Z" fill="#E30613"/>
<path d="M313.937 55.7228H305.851L303.33 60.3052H298.649L311.009 39.5732H315.808L319.219 60.3052H314.639L313.937 55.7228ZM313.406 52.2728L312.43 43.9281L307.835 52.2728H313.406Z" fill="white"/>
<path d="M336.593 60.3052H331.021L328.689 39.5732H333.482L334.49 55.5217L342.931 39.5732H347.698L336.598 60.3052H336.593Z" fill="white"/>
<path d="M350.545 60.3052L354.803 39.5732H371.324L370.562 43.2667H359.371L358.352 48.2301L368.541 48.2195L367.779 51.9235H357.591L356.631 56.6065H367.822L367.061 60.3105H350.54L350.545 60.3052Z" fill="white"/>
<path d="M386.263 68.4115C387.936 68.4115 389.293 67.073 389.293 65.4218C389.293 63.7707 387.936 62.4321 386.263 62.4321C384.59 62.4321 383.233 63.7707 383.233 65.4218C383.233 67.073 384.59 68.4115 386.263 68.4115Z" fill="#E30613"/>
<path d="M382.997 52.9286C384.671 52.9286 386.027 51.5901 386.027 49.9389C386.027 48.2877 384.671 46.9492 382.997 46.9492C381.324 46.9492 379.968 48.2877 379.968 49.9389C379.968 51.5901 381.324 52.9286 382.997 52.9286Z" fill="#E30613"/>
<path d="M427.654 43.5048L426.786 38.1339C426.223 34.6574 422.909 32.2869 419.386 32.8425L396.896 36.393C393.373 36.9487 390.971 40.2188 391.534 43.6953L395.132 65.8877C395.695 69.3642 399.009 71.7348 402.532 71.1792L425.021 67.6286C426.63 67.3746 427.997 66.5544 428.963 65.4115C426.121 62.2895 424.394 58.1675 424.394 53.6432C424.394 49.8651 425.606 46.3675 427.654 43.4995V43.5048Z" fill="#FBBA09"/>
<path d="M494.066 40.2611L494.302 38.499C494.768 35.0066 492.275 31.8053 488.736 31.3449L466.15 28.424C462.611 27.9637 459.367 30.4242 458.9 33.9166L457.495 44.4889C459.141 47.1558 460.096 50.2937 460.096 53.6432C460.096 56.5905 459.361 59.3633 458.064 61.8026C458.997 62.6175 460.176 63.1784 461.506 63.353L484.092 66.2739C486.725 66.6126 489.192 65.3426 490.473 63.2313L489.015 47.0447C488.725 43.8116 490.934 40.9331 494.066 40.2558V40.2611Z" fill="#794595"/>
<g style="mix-blend-mode:multiply">
<path d="M494.066 40.2612C490.934 40.9385 488.725 43.8171 489.015 47.0502L490.473 63.2368C490.918 62.5066 491.218 61.6811 491.336 60.7869L494.061 40.2612H494.066Z" fill="#794595"/>
</g>
<path d="M494.066 40.2612C490.934 40.9385 488.725 43.8171 489.015 47.0502L490.473 63.2368C490.918 62.5066 491.218 61.6811 491.336 60.7869L494.061 40.2612H494.066Z" fill="#413A8F"/>
<path d="M455.94 56.2043L457.495 44.4943C454.364 39.4197 448.701 36.0332 442.245 36.0332C436.218 36.0332 430.888 38.9858 427.654 43.5048L430.384 60.3316C430.689 62.226 430.116 64.0515 428.963 65.4167C432.228 69.0044 436.969 71.2638 442.245 71.2638C449.119 71.2638 455.082 67.4275 458.064 61.808C456.514 60.4533 455.651 58.3844 455.94 56.2043Z" fill="#0AA85D"/>
<g style="mix-blend-mode:multiply">
<path d="M430.384 60.3318L427.654 43.5049C425.601 46.3729 424.394 49.8705 424.394 53.6486C424.394 58.1728 426.126 62.2949 428.963 65.4169C430.116 64.0517 430.689 62.2261 430.384 60.3318Z" fill="#FCBC0C"/>
</g>
<g style="mix-blend-mode:multiply">
<path d="M430.384 60.3318L427.654 43.5049C425.601 46.3729 424.394 49.8705 424.394 53.6486C424.394 58.1728 426.126 62.2949 428.963 65.4169C430.116 64.0517 430.689 62.2261 430.384 60.3318Z" fill="#3CAF6F"/>
</g>
<g style="mix-blend-mode:multiply">
<path d="M457.495 44.4941L455.94 56.2042C455.651 58.3843 456.514 60.4532 458.064 61.8078C459.356 59.3685 460.096 56.5957 460.096 53.6484C460.096 50.2936 459.147 47.161 457.495 44.4941Z" fill="#794595"/>
</g>
<path d="M457.495 44.4941L455.94 56.2042C455.651 58.3843 456.514 60.4532 458.064 61.8078C459.356 59.3685 460.096 56.5957 460.096 53.6484C460.096 50.2936 459.147 47.161 457.495 44.4941Z" fill="#41444F"/>
<path d="M536.353 39.0653C531.811 39.0653 527.671 40.7427 524.518 43.4943C524.54 43.6372 524.566 43.7801 524.577 43.9229L526.593 66.3111C526.738 67.8933 526.277 69.3908 525.403 70.5866C528.427 72.9043 532.224 74.2907 536.347 74.2907C546.208 74.2907 554.198 66.4064 554.198 56.6754C554.198 46.9443 546.208 39.0601 536.347 39.0601L536.353 39.0653Z" fill="#E4097D"/>
<g style="mix-blend-mode:multiply">
<path d="M526.593 66.3163L524.577 43.9281C524.566 43.78 524.539 43.6424 524.518 43.4995C520.829 46.7273 518.502 51.4367 518.502 56.6859C518.502 62.3424 521.21 67.3746 525.408 70.5971C526.277 69.4013 526.738 67.9038 526.599 66.3216L526.593 66.3163Z" fill="#359ED9"/>
</g>
<path d="M526.593 66.3163L524.577 43.9281C524.566 43.78 524.539 43.6424 524.518 43.4995C520.829 46.7273 518.502 51.4367 518.502 56.6859C518.502 62.3424 521.21 67.3746 525.408 70.5971C526.277 69.4013 526.738 67.9038 526.599 66.3216L526.593 66.3163Z" fill="#69398E"/>
<path d="M438.76 57.0613L437.778 61.0352H432.952L438.009 43.8696H444.202L449.388 61.0352H444.352L443.242 57.0613H438.749H438.76ZM442.604 53.6483L441.805 50.5686C441.548 49.6003 441.21 48.1981 440.953 47.1821H440.899C440.642 48.2033 440.384 49.6267 440.127 50.5951L439.376 53.6536H442.604V53.6483Z" fill="white"/>
<path d="M414.93 54.1247C414.613 52.1881 414.249 49.9233 413.911 47.267L413.836 47.2776C413.605 49.5952 413.241 52.241 412.93 54.1829L412.029 60.3422L408.42 60.8237L406.152 55.1142C405.465 53.331 404.581 50.8758 403.878 48.6057H403.824C404.05 51.0239 404.296 53.5638 404.484 55.5164L405.063 61.6333L400.816 62.1995L399.535 45.0499L405.75 44.2191L407.524 48.6322C408.243 50.463 409.069 52.6696 409.707 54.6909L409.809 54.675C410.013 52.5426 410.248 50.0662 410.511 48.2089L411.171 43.4942L417.257 42.6846L420.458 59.5802L415.954 60.1782L414.914 54.1247H414.93Z" fill="white"/>
<path d="M467.501 56.6807V39.5151H472.998L475.759 44.7854C476.714 46.4893 477.722 48.7858 478.494 50.7966H478.569C478.312 48.5318 478.21 46.1348 478.21 43.5631V39.5151H482.467V56.6807H477.561L474.617 50.9765C473.636 49.1403 472.499 46.8491 471.673 44.7643H471.598C471.7 47.0819 471.753 49.6801 471.753 52.4581V56.686H467.496L467.501 56.6807Z" fill="white"/>
<path d="M534.551 59.3953L533.57 63.3691H528.744L533.8 46.2036H539.994L545.179 63.3691H540.144L539.034 59.3953H534.54H534.551ZM538.396 55.9823L537.597 52.9026C537.339 51.9343 537.001 50.532 536.744 49.5161H536.69C536.433 50.5373 536.176 51.9607 535.918 52.9291L535.168 55.9875H538.396V55.9823Z" fill="white"/>
<path d="M451.2 34.9431C453.039 34.9431 454.53 33.4719 454.53 31.6571C454.53 29.8423 453.039 28.3711 451.2 28.3711C449.361 28.3711 447.87 29.8423 447.87 31.6571C447.87 33.4719 449.361 34.9431 451.2 34.9431Z" fill="#1280C4"/>
<path d="M464.573 74.2957C467.046 74.2957 469.051 72.3176 469.051 69.8774C469.051 67.4372 467.046 65.459 464.573 65.459C462.101 65.459 460.096 67.4372 460.096 69.8774C460.096 72.3176 462.101 74.2957 464.573 74.2957Z" fill="#E4097D"/>
<path d="M518.502 56.6805C518.502 51.4313 520.829 46.7219 524.518 43.4941C523.993 40.2081 520.979 37.8375 517.569 38.1391L510.694 38.7424C510.748 38.9911 510.775 39.2503 510.775 39.5149C510.775 41.6421 509.027 43.3671 506.871 43.3671C504.715 43.3671 502.967 41.6421 502.967 39.5149C502.967 39.4832 502.967 39.4514 502.967 39.4197L494.876 40.1287C494.597 40.1552 494.329 40.2028 494.06 40.2557L491.336 60.7814C491.218 61.6756 490.913 62.5011 490.473 63.2313L491.031 69.4329C491.347 72.9412 494.484 75.534 498.039 75.2218L520.727 73.2322C522.679 73.0629 524.346 72.0469 525.403 70.5917C521.204 67.3692 518.496 62.337 518.496 56.6805H518.502Z" fill="#1280C4"/>
<path d="M528.18 38.9646C530.336 38.9646 532.084 37.24 532.084 35.1124C532.084 32.9849 530.336 31.2603 528.18 31.2603C526.024 31.2603 524.277 32.9849 524.277 35.1124C524.277 37.24 526.024 38.9646 528.18 38.9646Z" fill="#FBBA09"/>
<path d="M508.64 47.6851H503.97V64.8506H508.64V47.6851Z" fill="white"/>
</svg>
